<?xml version="1.0" encoding="utf-8"?>
<!-- Generator: Adobe Illustrator 18.1.1, SVG Export Plug-In . SVG Version: 6.00 Build 0)  -->
<svg version="1.1" id="Layer_1" xmlns="http://www.w3.org/2000/svg" xmlns:xlink="http://www.w3.org/1999/xlink" x="0px" y="0px"
	 viewBox="0 0 400 750" enable-background="new 0 0 400 750" xml:space="preserve">
<path fill="none" stroke="#CCCCCC" stroke-width="3" stroke-miterlimit="10" d="M74.7,9.9v227.1c0,5.5,2.5,10.9,6.8,14.4l0,0
	c3.4,2.8,7.5,4.2,11.8,4.2h231.6c5.9,0,11.5,2.5,15.6,6.9l0,0c3.6,3.9,5.5,9,5.5,14.3v92.5c0,3.7-1.4,7.2-3.9,10l0,0
	c-2.8,3-6.6,4.6-10.8,4.6h-73.5c-3.7,0-7.3-1-10.5-2.8l0,0c-6.7-3.8-11-11-11-18.7l0,0c0-6.3-3.4-12.1-8.9-15.2l-2.5-1.4
	c-3.5-2-7.4-3-11.4-3l-138.4,0.3c-6.6,0.1-12.7,5.2-16.8,10.3l0,0c-2.9,3.9-4.5,8.7-4.5,13.6v106.3c0,8.3,4,16,10.9,20.6l0,0
	c4.1,2.9,9.1,4.3,14.1,4.3h203.9c3.3,0,6.4,1,9.1,2.9l0,0c3.8,2.8,6.3,7.2,6.6,11.9l-0.1,52.5c0.4,6.5,1,12.9-3.4,17.7l0,0
	c-4.5,4.9-11,7.7-17.7,7.7h-108c-4.4,0-8.8,1.2-12.6,3.5l0,0c-7.4,4.4-11.9,12.4-11.9,21v124.6"/>
<path id="fillpath" fill="none" stroke="#29B8EB" stroke-width="3" stroke-miterlimit="10" d="M74.7,9.9v227.1
	c0,5.5,2.5,10.9,6.8,14.4l0,0c3.4,2.8,7.5,4.2,11.8,4.2h231.6c5.9,0,11.5,2.5,15.6,6.9l0,0c3.6,3.9,5.5,9,5.5,14.3v92.5
	c0,3.7-1.4,7.2-3.9,10l0,0c-2.8,3-6.6,4.6-10.8,4.6h-73.5c-3.7,0-7.3-1-10.5-2.8l0,0c-6.7-3.8-11-11-11-18.7l0,0
	c0-6.3-3.4-12.1-8.9-15.2l-2.5-1.4c-3.5-2-7.4-3-11.4-3l-138.4,0.3c-6.6,0.1-12.7,5.2-16.8,10.3l0,0c-2.9,3.9-4.5,8.7-4.5,13.6
	v106.3c0,8.3,4,16,10.9,20.6l0,0c4.1,2.9,9.1,4.3,14.1,4.3h203.9c3.3,0,6.4,1,9.1,2.9l0,0c3.8,2.8,6.3,7.2,6.6,11.9l-0.1,52.5
	c0.4,6.5,1,12.9-3.4,17.7l0,0c-4.5,4.9-11,7.7-17.7,7.7h-108c-4.4,0-8.8,1.2-12.6,3.5l0,0c-7.4,4.4-11.9,12.4-11.9,21v124.6"/>
<g>
	<g>
		<g>
			<defs>
				<rect id="SVGID_1_" x="87.8" y="184.1" width="98" height="78.2"/>
			</defs>
			<clipPath id="SVGID_2_">
				<use xlink:href="#SVGID_1_"  overflow="visible"/>
			</clipPath>
			<path clip-path="url(#SVGID_2_)" fill="#E5E8E8" d="M185.7,259.6c0,1.4-1.1,2.5-2.5,2.5h-93c-1.4,0-2.5-1.1-2.5-2.5v-7.9
				c0-1.4,1.1-2.5,2.5-2.5h93c1.4,0,2.5,1.1,2.5,2.5V259.6z"/>
		</g>
		<g>
			<defs>
				<rect id="SVGID_3_" x="87.8" y="184.1" width="98" height="78.2"/>
			</defs>
			<clipPath id="SVGID_4_">
				<use xlink:href="#SVGID_3_"  overflow="visible"/>
			</clipPath>
			<path clip-path="url(#SVGID_4_)" fill="none" stroke="#96A8B0" stroke-width="2" stroke-miterlimit="10" d="M145.7,249.3v12.9
				 M126.4,249.3v12.9 M107,249.3v12.9"/>
		</g>
		<g>
			<defs>
				<rect id="SVGID_5_" x="87.8" y="184.1" width="98" height="78.2"/>
			</defs>
			<clipPath id="SVGID_6_">
				<use xlink:href="#SVGID_5_"  overflow="visible"/>
			</clipPath>
			
				<line clip-path="url(#SVGID_6_)" fill="none" stroke="#FFFFFF" stroke-width="2" stroke-miterlimit="10" x1="165.1" y1="249.3" x2="165.1" y2="262.1"/>
		</g>
		<g>
			<defs>
				<rect id="SVGID_7_" x="87.8" y="184.1" width="98" height="78.2"/>
			</defs>
			<clipPath id="SVGID_8_">
				<use xlink:href="#SVGID_7_"  overflow="visible"/>
			</clipPath>
		</g>
		<g>
			<defs>
				<rect id="SVGID_9_" x="87.8" y="184.1" width="98" height="78.2"/>
			</defs>
			<clipPath id="SVGID_10_">
				<use xlink:href="#SVGID_9_"  overflow="visible"/>
			</clipPath>
		</g>
	</g>
	<rect x="170.4" y="230.1" fill="#176B94" width="10.1" height="8.5"/>
	<rect x="165.4" y="225.9" fill="#29B8EB" width="10.1" height="8.5"/>
	<rect x="164.9" y="224.7" fill="#4D4D4F" width="0.9" height="37.5"/>
	<polygon fill="#BFF5FF" points="170.4,238.6 170.4,234.4 175.4,234.4 	"/>
	<g>
		<g>
			<defs>
				<rect id="SVGID_11_" x="87.8" y="184.1" width="98" height="78.2"/>
			</defs>
			<clipPath id="SVGID_12_">
				<use xlink:href="#SVGID_11_"  overflow="visible"/>
			</clipPath>
			<path clip-path="url(#SVGID_12_)" fill="none" stroke="#B0BFC4" stroke-width="7" stroke-miterlimit="10" d="M133.7,226.6
				l7.6,17.9 M104.9,233.2c1.6,2,4,3.2,6.8,3.2c4.8,0,8.8-3.9,8.8-8.8v-13.6"/>
		</g>
		<g>
			<defs>
				<rect id="SVGID_13_" x="87.8" y="184.1" width="98" height="78.2"/>
			</defs>
			<clipPath id="SVGID_14_">
				<use xlink:href="#SVGID_13_"  overflow="visible"/>
			</clipPath>
			<path clip-path="url(#SVGID_14_)" fill="#4D636E" d="M141.2,241.4c-1.5,0.6-2.2,2.4-1.6,3.8l5.4-2.3
				C144.4,241.5,142.7,240.8,141.2,241.4"/>
		</g>
		<g>
			<defs>
				<rect id="SVGID_15_" x="87.8" y="184.1" width="98" height="78.2"/>
			</defs>
			<clipPath id="SVGID_16_">
				<use xlink:href="#SVGID_15_"  overflow="visible"/>
			</clipPath>
			<path clip-path="url(#SVGID_16_)" fill="#4D636E" d="M105.6,235.9c1.3-1,1.6-2.8,0.7-4l-4.7,3.4
				C102.4,236.4,104.3,236.7,105.6,235.9"/>
		</g>
		<g>
			<defs>
				<rect id="SVGID_17_" x="87.8" y="184.1" width="98" height="78.2"/>
			</defs>
			<clipPath id="SVGID_18_">
				<use xlink:href="#SVGID_17_"  overflow="visible"/>
			</clipPath>
			<path clip-path="url(#SVGID_18_)" fill="none" stroke="#96A8B0" stroke-width="7" stroke-miterlimit="10" d="M139.6,201.2
				c1,0.7,1.8,1.8,2.2,3.2c0.9,3.1-0.9,6.2-3.9,7c-3.1,0.9-6.2-0.9-7-3.9"/>
		</g>
		<g>
			<defs>
				<rect id="SVGID_19_" x="87.8" y="184.1" width="98" height="78.2"/>
			</defs>
			<clipPath id="SVGID_20_">
				<use xlink:href="#SVGID_19_"  overflow="visible"/>
			</clipPath>
			<path clip-path="url(#SVGID_20_)" fill="none" stroke="#B0BFC4" stroke-width="7" stroke-miterlimit="10" d="M113.9,217.3
				c-1.6-0.3-3.1-1.4-3.8-3c-1.5-2.9-0.5-6.3,2.3-7.8c2.8-1.5,6.2-0.5,7.7,2.4"/>
		</g>
		<g>
			<defs>
				<rect id="SVGID_21_" x="87.8" y="184.1" width="98" height="78.2"/>
			</defs>
			<clipPath id="SVGID_22_">
				<use xlink:href="#SVGID_21_"  overflow="visible"/>
			</clipPath>
			<path clip-path="url(#SVGID_22_)" fill="#29B8EB" d="M135.6,212.2c0,5-4,9.1-9.1,9.1c-5,0-9.1-4-9.1-9.1s4-9.1,9.1-9.1
				C131.5,203.1,135.6,207.1,135.6,212.2"/>
		</g>
	</g>
	<rect x="117.5" y="212.2" fill="#29B8EB" width="18.1" height="9.1"/>
	<g>
		<g>
			<defs>
				<rect id="SVGID_23_" x="87.8" y="184.1" width="98" height="78.2"/>
			</defs>
			<clipPath id="SVGID_24_">
				<use xlink:href="#SVGID_23_"  overflow="visible"/>
			</clipPath>
			<path clip-path="url(#SVGID_24_)" fill="#176B94" d="M130.1,229.8l8.2-3l-2.8-6.6h-18.1l-1.8,6.8l8.8,2.9l0.7-2.9
				c0.2-0.9,1-1.5,1.9-1.5c0.8,0,1.5,0.5,1.8,1.2L130.1,229.8z"/>
		</g>
		<g>
			<defs>
				<rect id="SVGID_25_" x="87.8" y="184.1" width="98" height="78.2"/>
			</defs>
			<clipPath id="SVGID_26_">
				<use xlink:href="#SVGID_25_"  overflow="visible"/>
			</clipPath>
			<path clip-path="url(#SVGID_26_)" fill="#42C9F0" d="M118.6,211.1c-1.7-0.5-2.6-2.3-2.1-3.9s2.3-2.7,3.8-2.2
				c1.7,0.5,2.6,2.3,2.1,3.9S120.2,211.6,118.6,211.1"/>
		</g>
	</g>
	<polygon fill="#42C9F0" points="115.4,210.1 117.2,204 120.4,205 118.6,211.1 	"/>
	<g>
		<g>
			<defs>
				<rect id="SVGID_27_" x="87.8" y="184.1" width="98" height="78.2"/>
			</defs>
			<clipPath id="SVGID_28_">
				<use xlink:href="#SVGID_27_"  overflow="visible"/>
			</clipPath>
			<path clip-path="url(#SVGID_28_)" fill="#B0BFC4" d="M116.3,216.4c0.2,1.1-0.6,2.2-1.7,2.4c-1.1,0.2-2.2-0.6-2.3-1.7
				c-0.2-1.1,0.6-2.2,1.7-2.4C115,214.6,116.1,215.3,116.3,216.4"/>
		</g>
		<g>
			<defs>
				<rect id="SVGID_29_" x="87.8" y="184.1" width="98" height="78.2"/>
			</defs>
			<clipPath id="SVGID_30_">
				<use xlink:href="#SVGID_29_"  overflow="visible"/>
			</clipPath>
			<path clip-path="url(#SVGID_30_)" fill="#96A8B0" d="M137.2,201.5c0-1.1,0.9-2,2-2s2,0.9,2,2s-0.9,2-2,2S137.2,202.7,137.2,201.5
				"/>
		</g>
		<g>
			<defs>
				<rect id="SVGID_31_" x="87.8" y="184.1" width="98" height="78.2"/>
			</defs>
			<clipPath id="SVGID_32_">
				<use xlink:href="#SVGID_31_"  overflow="visible"/>
			</clipPath>
			<path clip-path="url(#SVGID_32_)" fill="#96A8B0" d="M126.1,204.5c0,0.8,0.7,1.5,1.5,1.5s1.5-0.7,1.5-1.5s-0.7-1.5-1.5-1.5
				S126.1,203.7,126.1,204.5"/>
		</g>
	</g>
	<rect x="126.1" y="202" fill="#96A8B0" width="3.1" height="2.5"/>
	<rect x="127.7" y="184.1" fill="#454F54" width="7.6" height="4.1"/>
	<rect x="132.4" y="187" fill="#454F54" width="2.9" height="4.6"/>
	<g>
		<g>
			<defs>
				<rect id="SVGID_33_" x="87.8" y="184.1" width="98" height="78.2"/>
			</defs>
			<clipPath id="SVGID_34_">
				<use xlink:href="#SVGID_33_"  overflow="visible"/>
			</clipPath>
			<path clip-path="url(#SVGID_34_)" fill="#454F54" d="M135.3,191.7c0,4.1-3.4,7.6-7.6,7.6c-4.1,0-7.6-3.4-7.6-7.6
				c0-4.1,3.4-7.6,7.6-7.6C131.9,184.1,135.3,187.5,135.3,191.7"/>
		</g>
		<g>
			<defs>
				<rect id="SVGID_35_" x="87.8" y="184.1" width="98" height="78.2"/>
			</defs>
			<clipPath id="SVGID_36_">
				<use xlink:href="#SVGID_35_"  overflow="visible"/>
			</clipPath>
			<path clip-path="url(#SVGID_36_)" fill="#B0BFC4" d="M135.3,195.1c0,4.1-3.4,7.6-7.6,7.6c-4.1,0-7.6-3.4-7.6-7.6
				c0-4.1,3.4-7.6,7.6-7.6C131.9,187.5,135.3,191,135.3,195.1"/>
		</g>
		<g>
			<defs>
				<rect id="SVGID_37_" x="87.8" y="184.1" width="98" height="78.2"/>
			</defs>
			<clipPath id="SVGID_38_">
				<use xlink:href="#SVGID_37_"  overflow="visible"/>
			</clipPath>
			<path clip-path="url(#SVGID_38_)" fill="#B0BFC4" d="M121.1,195.2c0,0.8-0.7,1.5-1.5,1.5c-0.8,0-1.5-0.7-1.5-1.5s0.7-1.5,1.5-1.5
				C120.5,193.7,121.1,194.4,121.1,195.2"/>
		</g>
	</g>
	<polygon fill="#263036" points="122,189.4 120.3,191.7 120.3,193.7 122,193.7 	"/>
	<polygon fill="#454F54" points="133.4,189.4 135.2,191.7 135.2,193.7 133.4,193.7 	"/>
	<polygon fill="#454F54" points="133.9,192.5 121.5,192.5 121.5,189 127.7,186.6 133.9,189 	"/>
	<g>
		<g>
			<defs>
				<rect id="SVGID_39_" x="87.8" y="184.1" width="98" height="78.2"/>
			</defs>
			<clipPath id="SVGID_40_">
				<use xlink:href="#SVGID_39_"  overflow="visible"/>
			</clipPath>
			<path clip-path="url(#SVGID_40_)" fill="#263036" d="M133.4,189.5c0,2.1-1.7,3.8-3.8,3.8s-3.8-1.7-3.8-3.8s1.7-3.8,3.8-3.8
				C131.7,185.7,133.4,187.4,133.4,189.5"/>
		</g>
		<g>
			<defs>
				<rect id="SVGID_41_" x="87.8" y="184.1" width="98" height="78.2"/>
			</defs>
			<clipPath id="SVGID_42_">
				<use xlink:href="#SVGID_41_"  overflow="visible"/>
			</clipPath>
			<path clip-path="url(#SVGID_42_)" fill="#263036" d="M128,188.5c0,1.1-0.9,2.1-2.1,2.1c-1.1,0-2.1-0.9-2.1-2.1
				c0-1.1,0.9-2.1,2.1-2.1C127.1,186.4,128,187.3,128,188.5"/>
		</g>
		<g>
			<defs>
				<rect id="SVGID_43_" x="87.8" y="184.1" width="98" height="78.2"/>
			</defs>
			<clipPath id="SVGID_44_">
				<use xlink:href="#SVGID_43_"  overflow="visible"/>
			</clipPath>
			<path clip-path="url(#SVGID_44_)" fill="#454F54" d="M126.8,189.4c0,1.1-0.9,2.1-2.1,2.1c-1.1,0-2.1-0.9-2.1-2.1
				c0-1.1,0.9-2.1,2.1-2.1C125.8,187.3,126.8,188.2,126.8,189.4"/>
		</g>
	</g>
	<rect x="132.7" y="189.4" fill="#263036" width="0.7" height="2.2"/>
	<g>
		<g>
			<defs>
				<rect id="SVGID_45_" x="87.8" y="184.1" width="98" height="78.2"/>
			</defs>
			<clipPath id="SVGID_46_">
				<use xlink:href="#SVGID_45_"  overflow="visible"/>
			</clipPath>
			<path clip-path="url(#SVGID_46_)" fill="#96A8B0" d="M133.4,191.1c0,2-2.6,3.6-5.7,3.6c-3.2,0-5.7-1.6-5.7-3.6
				c0-2,2.6-3.6,5.7-3.6C130.8,187.5,133.4,189.1,133.4,191.1"/>
		</g>
	</g>
	<rect x="122" y="191.1" fill="#96A8B0" width="11.3" height="1.4"/>
	<g>
		<g>
			<defs>
				<rect id="SVGID_47_" x="87.8" y="184.1" width="98" height="78.2"/>
			</defs>
			<clipPath id="SVGID_48_">
				<use xlink:href="#SVGID_47_"  overflow="visible"/>
			</clipPath>
			<path clip-path="url(#SVGID_48_)" fill="#B0BFC4" d="M133.4,192.4c0,2-2.6,3.6-5.7,3.6c-3.2,0-5.7-1.6-5.7-3.6
				c0-2,2.6-3.6,5.7-3.6C130.8,188.9,133.4,190.5,133.4,192.4"/>
		</g>
	</g>
	<polygon fill="#E5EDF0" points="126.4,195.5 127.7,192.5 129,195.5 	"/>
	<g>
		<g>
			<defs>
				<rect id="SVGID_49_" x="87.8" y="184.1" width="98" height="78.2"/>
			</defs>
			<clipPath id="SVGID_50_">
				<use xlink:href="#SVGID_49_"  overflow="visible"/>
			</clipPath>
			<path clip-path="url(#SVGID_50_)" fill="#263036" d="M125.7,193.6c0,0.7-0.5,1.2-1.2,1.2c-0.7,0-1.2-0.5-1.2-1.2
				c0-0.7,0.5-1.2,1.2-1.2C125.2,192.4,125.7,192.9,125.7,193.6"/>
		</g>
	</g>
	<rect x="119.6" y="193.7" fill="#B0BFC4" width="2.4" height="1.6"/>
	<g>
		<g>
			<defs>
				<rect id="SVGID_51_" x="87.8" y="184.1" width="98" height="78.2"/>
			</defs>
			<clipPath id="SVGID_52_">
				<use xlink:href="#SVGID_51_"  overflow="visible"/>
			</clipPath>
			<path clip-path="url(#SVGID_52_)" fill="#B0BFC4" d="M134.3,195.2c0,0.8,0.7,1.5,1.5,1.5s1.5-0.7,1.5-1.5s-0.7-1.5-1.5-1.5
				S134.3,194.4,134.3,195.2"/>
		</g>
	</g>
	<rect x="134.5" y="191.7" fill="#454F54" width="0.9" height="2.1"/>
	<rect x="133.4" y="193.7" fill="#B0BFC4" width="2.4" height="1.6"/>
	<rect x="122.5" y="193.7" fill="#B0BFC4" width="3.3" height="1.6"/>
	<g>
		<g>
			<defs>
				<rect id="SVGID_53_" x="87.8" y="184.1" width="98" height="78.2"/>
			</defs>
			<clipPath id="SVGID_54_">
				<use xlink:href="#SVGID_53_"  overflow="visible"/>
			</clipPath>
			<path clip-path="url(#SVGID_54_)" fill="#96A8B0" d="M128.8,201.3c0,0.7-0.5,1.2-1.2,1.2c-0.7,0-1.2-0.5-1.2-1.2
				c0-0.7,0.5-1.2,1.2-1.2C128.4,200.1,128.8,200.6,128.8,201.3"/>
		</g>
	</g>
	<polygon fill="#B0BFC4" points="129.3,202.1 127.7,202.6 126.1,202.1 126.1,201.3 129.3,201.3 	"/>
	<g>
		<g>
			<defs>
				<rect id="SVGID_55_" x="87.8" y="184.1" width="98" height="78.2"/>
			</defs>
			<clipPath id="SVGID_56_">
				<use xlink:href="#SVGID_55_"  overflow="visible"/>
			</clipPath>
			<path clip-path="url(#SVGID_56_)" fill="#263036" d="M129.7,193.6c0,0.7,0.5,1.2,1.2,1.2c0.7,0,1.2-0.5,1.2-1.2
				c0-0.7-0.5-1.2-1.2-1.2C130.2,192.4,129.7,192.9,129.7,193.6"/>
		</g>
	</g>
	<rect x="129.5" y="193.7" fill="#B0BFC4" width="3.3" height="1.6"/>
	<g>
		<g>
			<defs>
				<rect id="SVGID_57_" x="87.8" y="184.1" width="98" height="78.2"/>
			</defs>
			<clipPath id="SVGID_58_">
				<use xlink:href="#SVGID_57_"  overflow="visible"/>
			</clipPath>
			<path clip-path="url(#SVGID_58_)" fill="#96A8B0" d="M127.7,196.8c0.7,0,1.3-0.6,1.3-1.3h-2.6C126.4,196.2,127,196.8,127.7,196.8
				"/>
		</g>
		<g>
			<defs>
				<rect id="SVGID_59_" x="87.8" y="184.1" width="98" height="78.2"/>
			</defs>
			<clipPath id="SVGID_60_">
				<use xlink:href="#SVGID_59_"  overflow="visible"/>
			</clipPath>
			<path clip-path="url(#SVGID_60_)" fill="#FFFFFF" d="M123.9,197.7c0.6,1.5,2.1,2.5,3.8,2.5c1.7,0,3.2-1,3.8-2.5H123.9z"/>
		</g>
		<g>
			<defs>
				<rect id="SVGID_61_" x="87.8" y="184.1" width="98" height="78.2"/>
			</defs>
			<clipPath id="SVGID_62_">
				<use xlink:href="#SVGID_61_"  overflow="visible"/>
			</clipPath>
			<path clip-path="url(#SVGID_62_)" fill="#E5EDF0" d="M123.7,195.2h1.6c0.1,0,0.3-0.1,0.3-0.3c0-0.1-0.1-0.3-0.3-0.3h-1.6
				c-0.1,0-0.3,0.1-0.3,0.3C123.5,195.1,123.6,195.2,123.7,195.2"/>
		</g>
		<g>
			<defs>
				<rect id="SVGID_63_" x="87.8" y="184.1" width="98" height="78.2"/>
			</defs>
			<clipPath id="SVGID_64_">
				<use xlink:href="#SVGID_63_"  overflow="visible"/>
			</clipPath>
			<path clip-path="url(#SVGID_64_)" fill="#E5EDF0" d="M131.6,194.7H130c-0.1,0-0.3,0.1-0.3,0.3c0,0.1,0.1,0.3,0.3,0.3h1.6
				c0.1,0,0.3-0.1,0.3-0.3S131.8,194.7,131.6,194.7"/>
		</g>
	</g>
	<rect x="120.1" y="187" fill="#454F54" width="1.9" height="6.7"/>
	<path fill="#FFCF4A" d="M109.9,262H90.9c-1.7,0-3.1-1.4-3.1-3.1v-6.4c0-1.7,1.4-3.1,3.1-3.1h18.9c1.7,0,3.1,1.4,3.1,3.1v6.4
		C113,260.6,111.6,262,109.9,262z"/>
	<path fill="#FF9600" d="M109.3,262H90.2c-1.1,0-2-0.9-2-2v-4.8h24.5v3.5C112.7,260.5,111.2,262,109.3,262z"/>
</g>
<g>
	<g>
		<g>
			<defs>
				<rect id="SVGID_65_" x="132.7" y="310.6" width="81.7" height="61.9"/>
			</defs>
			<clipPath id="SVGID_66_">
				<use xlink:href="#SVGID_65_"  overflow="visible"/>
			</clipPath>
			<path clip-path="url(#SVGID_66_)" fill="#E5E8E8" d="M176.3,318.8V362l-10.6,10.4h-30.4c-1.3,0-2.7-1.5-2.7-2.8v-50.8
				c0-1.3,1.3-2.8,2.7-2.8h38.3C174.9,316.1,176.3,317.6,176.3,318.8"/>
		</g>
	</g>
	<path fill="none" stroke="#FFFFFF" stroke-width="3.6" stroke-linecap="round" stroke-linejoin="round" stroke-miterlimit="10" d="
		M140.5,349.9h28.3 M140.5,344h28.3 M140.5,338.3h28.3 M140.5,332.5h28.3 M140.5,326.7h28.3"/>
	<polygon fill="#96A8B0" points="165.6,362 165.6,372 176.2,362 	"/>
	<polygon fill="#D9D9DB" points="155.5,372 165.8,372 165.8,362 	"/>
	<g>
		<g>
			<defs>
				<rect id="SVGID_67_" x="132.7" y="310.6" width="81.7" height="61.9"/>
			</defs>
			<clipPath id="SVGID_68_">
				<use xlink:href="#SVGID_67_"  overflow="visible"/>
			</clipPath>
			<path clip-path="url(#SVGID_68_)" fill="#4D4D4F" d="M192.8,337.1c-5.9-3.3-8.1-10.7-4.8-16.6c3.3-5.9,10.7-8.1,16.6-4.8
				s8.1,10.7,4.8,16.6C206.1,338.2,198.6,340.4,192.8,337.1 M200.5,358.3l-0.4-16.1c5-0.5,9.8-3.4,12.4-8.2
				c4.2-7.7,1.4-17.4-6.3-21.5c-7.7-4.2-17.4-1.4-21.5,6.3c-4.2,7.7-1.4,17.4,6.3,21.5c2.2,1.2,4.5,1.8,6.9,1.9l0.4,16.2
				L200.5,358.3z"/>
		</g>
		<g>
			<defs>
				<rect id="SVGID_69_" x="132.7" y="310.6" width="81.7" height="61.9"/>
			</defs>
			<clipPath id="SVGID_70_">
				<use xlink:href="#SVGID_69_"  overflow="visible"/>
			</clipPath>
			<path clip-path="url(#SVGID_70_)" fill="#9E59FF" d="M200.9,368.4c1,0,1.8-0.9,1.8-1.9l-0.2-18.8c0-1-0.9-1.9-1.9-1.8l-1.5,0.1
				l0.2,22.4L200.9,368.4z"/>
		</g>
		<g>
			<defs>
				<rect id="SVGID_71_" x="132.7" y="310.6" width="81.7" height="61.9"/>
			</defs>
			<clipPath id="SVGID_72_">
				<use xlink:href="#SVGID_71_"  overflow="visible"/>
			</clipPath>
			<path clip-path="url(#SVGID_72_)" fill="#783DC4" d="M199.1,346.1l-1.5,0.1c-1,0-1.8,0.9-1.8,1.9l0.2,18.8c0,1,0.9,1.9,1.9,1.8
				l1.5-0.1L199.1,346.1z"/>
		</g>
		<g>
			<defs>
				<rect id="SVGID_73_" x="132.7" y="310.6" width="81.7" height="61.9"/>
			</defs>
			<clipPath id="SVGID_74_">
				<use xlink:href="#SVGID_73_"  overflow="visible"/>
			</clipPath>
			<path clip-path="url(#SVGID_74_)" fill="#C9EDFA" d="M198.6,338.7c-2.1,0-4-0.5-5.8-1.5c-5.9-3.3-8.1-10.8-4.9-16.7
				c2.2-3.9,6.3-6.4,10.8-6.4c2.1,0,4,0.5,5.8,1.5c5.9,3.3,8.1,10.8,4.9,16.7C207.2,336.3,203.1,338.7,198.6,338.7L198.6,338.7z"/>
		</g>
		<g>
			<defs>
				<rect id="SVGID_75_" x="132.7" y="310.6" width="81.7" height="61.9"/>
			</defs>
			<clipPath id="SVGID_76_">
				<use xlink:href="#SVGID_75_"  overflow="visible"/>
			</clipPath>
			<path clip-path="url(#SVGID_76_)" fill="#FFFFFF" d="M198.6,313.6c-4.5,0-9,2.5-11.3,6.7c-3.4,6.2-1.1,14,5.1,17.5
				c2,1.1,4,1.6,6.1,1.6c4.5,0,9-2.5,11.3-6.7c3.4-6.2,1.1-14-5.1-17.5C202.9,314.1,200.7,313.6,198.6,313.6 M198.6,314.7
				c2,0,3.8,0.5,5.6,1.5c2.8,1.5,4.7,3.9,5.6,7c0.9,3,0.5,6.2-1,8.9c-2.1,3.8-6,6.1-10.3,6.1c-2,0-3.8-0.5-5.6-1.5
				c-2.8-1.5-4.7-3.9-5.6-7c-0.9-3-0.5-6.2,1-8.9C190.4,317.1,194.4,314.7,198.6,314.7"/>
		</g>
	</g>
	<g id="glass" display="none">
		<path display="inline" fill="#FF6E00" d="M199,339c-5.2,0-9.9-3.2-11.6-8.2c-1.1-3.1-0.9-6.4,0.5-9.4c1.4-3,3.9-5.2,7-6.3
			c1.3-0.5,2.7-0.7,4.1-0.7c5.2,0,9.9,3.3,11.6,8.2c2.3,6.4-1.1,13.4-7.5,15.7C201.8,338.8,200.4,339,199,339L199,339z"/>
		<path display="inline" fill="#FFFFFF" d="M199,313.8c-1.4,0-2.9,0.2-4.3,0.7c-6.7,2.4-10.2,9.8-7.9,16.5c1.9,5.3,6.9,8.6,12.2,8.6
			c1.4,0,2.9-0.2,4.3-0.7c6.7-2.4,10.2-9.8,7.9-16.5C209.3,317.1,204.3,313.8,199,313.8 M199,315c5,0,9.4,3.2,11.1,7.8
			c1,3,0.9,6.1-0.5,9c-1.4,2.8-3.7,5-6.7,6c-1.3,0.4-2.6,0.7-3.9,0.7c-5,0-9.4-3.2-11.1-7.8c-1-3-0.9-6.1,0.5-9c1.4-2.8,3.7-5,6.7-6
			C196.3,315.2,197.7,315,199,315"/>
		<path display="inline" fill="#FFFFFF" d="M197.4,319.5h3.3l-0.5,9.6h-2.3L197.4,319.5z M197.3,332.4c0-0.5,0.2-0.9,0.5-1.2
			c0.3-0.3,0.7-0.5,1.2-0.5c0.5,0,0.9,0.2,1.2,0.5c0.3,0.3,0.4,0.7,0.4,1.2c0,0.5-0.1,0.8-0.4,1.2c-0.3,0.3-0.7,0.5-1.2,0.5
			c-0.5,0-0.9-0.2-1.2-0.5C197.5,333.2,197.3,332.9,197.3,332.4"/>
	</g>
</g>
<g>
	<g>
		<g>
			<defs>
				<rect id="SVGID_77_" x="17.3" y="437.6" width="73.1" height="54.3"/>
			</defs>
			<clipPath id="SVGID_78_">
				<use xlink:href="#SVGID_77_"  overflow="visible"/>
			</clipPath>
			
				<path clip-path="url(#SVGID_78_)" fill="none" stroke="#783DC4" stroke-width="3.6" stroke-linecap="round" stroke-linejoin="round" stroke-miterlimit="10" d="
				M31.8,451L76,440.1 M66.1,461.2l10.6-20.6l10.5,20.6 M20.8,472.8l10.5-20.6l10.5,20.6"/>
		</g>
		<g>
			<defs>
				<rect id="SVGID_79_" x="17.3" y="437.6" width="73.1" height="54.3"/>
			</defs>
			<clipPath id="SVGID_80_">
				<use xlink:href="#SVGID_79_"  overflow="visible"/>
			</clipPath>
			<path clip-path="url(#SVGID_80_)" fill="#783DC4" d="M53.9,489.5c-1,0-1.9-0.9-1.9-2v-44.1c0-1.1,0.8-2,1.9-2c1,0,1.9,0.9,1.9,2
				v44.1C55.8,488.6,54.9,489.5,53.9,489.5"/>
		</g>
		<g>
			<defs>
				<rect id="SVGID_81_" x="17.3" y="437.6" width="73.1" height="54.3"/>
			</defs>
			<clipPath id="SVGID_82_">
				<use xlink:href="#SVGID_81_"  overflow="visible"/>
			</clipPath>
			<path clip-path="url(#SVGID_82_)" fill="#4D636E" d="M60.4,485.7H47.5c-0.9,0-1.7-0.8-1.7-1.8v-0.4c0-1,0.8-1.8,1.7-1.8h12.9
				c0.9,0,1.7,0.8,1.7,1.8v0.5C62,484.9,61.3,485.7,60.4,485.7"/>
		</g>
		<g>
			<defs>
				<rect id="SVGID_83_" x="17.3" y="437.6" width="73.1" height="54.3"/>
			</defs>
			<clipPath id="SVGID_84_">
				<use xlink:href="#SVGID_83_"  overflow="visible"/>
			</clipPath>
			<path clip-path="url(#SVGID_84_)" fill="#4D636E" d="M64.3,491.9H43.6c-1.5,0-2.7-1.3-2.7-2.8v-0.8c0-1.6,1.2-2.8,2.7-2.8h20.7
				c1.5,0,2.7,1.3,2.7,2.8v0.8C67,490.7,65.8,491.9,64.3,491.9"/>
		</g>
		<g>
			<defs>
				<rect id="SVGID_85_" x="17.3" y="437.6" width="73.1" height="54.3"/>
			</defs>
			<clipPath id="SVGID_86_">
				<use xlink:href="#SVGID_85_"  overflow="visible"/>
			</clipPath>
			<path clip-path="url(#SVGID_86_)" fill="#D4A3FF" d="M31.3,472.6H19.8c0,6.6,5.1,11.9,11.4,11.9s11.4-5.3,11.4-11.9H31.3z"/>
		</g>
		<g>
			<defs>
				<rect id="SVGID_87_" x="17.3" y="437.6" width="73.1" height="54.3"/>
			</defs>
			<clipPath id="SVGID_88_">
				<use xlink:href="#SVGID_87_"  overflow="visible"/>
			</clipPath>
			<path clip-path="url(#SVGID_88_)" fill="#B078ED" d="M31.3,472.6v11.9c6.3,0,11.4-5.3,11.4-11.9H31.3z"/>
		</g>
		<g>
			<defs>
				<rect id="SVGID_89_" x="17.3" y="437.6" width="73.1" height="54.3"/>
			</defs>
			<clipPath id="SVGID_90_">
				<use xlink:href="#SVGID_89_"  overflow="visible"/>
			</clipPath>
			<path clip-path="url(#SVGID_90_)" fill="#D4A3FF" d="M76.6,461.1H65.1c0,6.6,5.1,11.9,11.4,11.9c6.3,0,11.4-5.3,11.4-11.9H76.6z"
				/>
		</g>
		<g>
			<defs>
				<rect id="SVGID_91_" x="17.3" y="437.6" width="73.1" height="54.3"/>
			</defs>
			<clipPath id="SVGID_92_">
				<use xlink:href="#SVGID_91_"  overflow="visible"/>
			</clipPath>
			<path clip-path="url(#SVGID_92_)" fill="#B078ED" d="M76.6,461.1V473c6.3,0,11.4-5.3,11.4-11.9H76.6z"/>
		</g>
		<g>
			<defs>
				<rect id="SVGID_93_" x="17.3" y="437.6" width="73.1" height="54.3"/>
			</defs>
			<clipPath id="SVGID_94_">
				<use xlink:href="#SVGID_93_"  overflow="visible"/>
			</clipPath>
			<path clip-path="url(#SVGID_94_)" fill="#4D636E" d="M57.6,444.6c0,2.2-1.7,3.9-3.8,3.9s-3.8-1.8-3.8-3.9c0-2.2,1.7-3.9,3.8-3.9
				S57.6,442.3,57.6,444.6"/>
		</g>
		<g>
			<defs>
				<rect id="SVGID_95_" x="17.3" y="437.6" width="73.1" height="54.3"/>
			</defs>
			<clipPath id="SVGID_96_">
				<use xlink:href="#SVGID_95_"  overflow="visible"/>
			</clipPath>
			<path clip-path="url(#SVGID_96_)" fill="#783DC4" d="M33.5,451.5c0,1.3-1,2.4-2.3,2.4c-1.2,0-2.3-1.1-2.3-2.4
				c0-1.3,1-2.4,2.3-2.4S33.5,450.2,33.5,451.5"/>
		</g>
		<g>
			<defs>
				<rect id="SVGID_97_" x="17.3" y="437.6" width="73.1" height="54.3"/>
			</defs>
			<clipPath id="SVGID_98_">
				<use xlink:href="#SVGID_97_"  overflow="visible"/>
			</clipPath>
			<path clip-path="url(#SVGID_98_)" fill="#783DC4" d="M78.8,439.9c0,1.3-1,2.4-2.3,2.4c-1.2,0-2.3-1.1-2.3-2.4
				c0-1.3,1-2.4,2.3-2.4C77.8,437.6,78.8,438.7,78.8,439.9"/>
		</g>
		<g>
			<defs>
				<rect id="SVGID_99_" x="17.3" y="437.6" width="73.1" height="54.3"/>
			</defs>
			<clipPath id="SVGID_100_">
				<use xlink:href="#SVGID_99_"  overflow="visible"/>
			</clipPath>
			
				<path clip-path="url(#SVGID_100_)" fill="none" stroke="#783DC4" stroke-width="3.6" stroke-linecap="round" stroke-linejoin="round" stroke-miterlimit="10" d="
				M63.4,461.2h26.3 M18.1,472.8h26.3"/>
		</g>
	</g>
</g>
<g>
	<g>
		<g>
			<defs>
				<rect id="SVGID_101_" x="208.9" y="468.2" width="66" height="60.9"/>
			</defs>
			<clipPath id="SVGID_102_">
				<use xlink:href="#SVGID_101_"  overflow="visible"/>
			</clipPath>
			<path clip-path="url(#SVGID_102_)" fill="#FF9600" d="M268,497.7c0,16.3-13.2,29.5-29.5,29.5s-29.6-13.2-29.6-29.5
				c0-16.3,13.2-29.5,29.5-29.5S268,481.4,268,497.7"/>
		</g>
		<g>
			<defs>
				<rect id="SVGID_103_" x="208.9" y="468.2" width="66" height="60.9"/>
			</defs>
			<clipPath id="SVGID_104_">
				<use xlink:href="#SVGID_103_"  overflow="visible"/>
			</clipPath>
			<path clip-path="url(#SVGID_104_)" fill="#FFD987" d="M260.9,497.7c0,12.4-10.1,22.5-22.5,22.5c-12.4,0-22.5-10.1-22.5-22.5
				c0-12.4,10.1-22.5,22.5-22.5C250.8,475.2,260.9,485.2,260.9,497.7"/>
		</g>
		<g>
			<defs>
				<rect id="SVGID_105_" x="208.9" y="468.2" width="66" height="60.9"/>
			</defs>
			<clipPath id="SVGID_106_">
				<use xlink:href="#SVGID_105_"  overflow="visible"/>
			</clipPath>
			<path clip-path="url(#SVGID_106_)" fill="#FF9600" d="M253.9,497.7c0,8.6-6.9,15.5-15.5,15.5s-15.5-6.9-15.5-15.5
				s6.9-15.5,15.5-15.5C247,482.2,253.9,489.1,253.9,497.7"/>
		</g>
		<g>
			<defs>
				<rect id="SVGID_107_" x="208.9" y="468.2" width="66" height="60.9"/>
			</defs>
			<clipPath id="SVGID_108_">
				<use xlink:href="#SVGID_107_"  overflow="visible"/>
			</clipPath>
			<path clip-path="url(#SVGID_108_)" fill="#FFD987" d="M246.9,497.7c0,4.6-3.8,8.5-8.5,8.5c-4.6,0-8.5-3.8-8.5-8.5
				c0-4.6,3.8-8.5,8.5-8.5C243.1,489.2,246.9,493,246.9,497.7"/>
		</g>
	</g>
	<g>
		<g>
			<defs>
				<polygon id="SVGID_109_" points="221.6,528.9 274.9,528.9 267.9,482.7 				"/>
			</defs>
			<clipPath id="SVGID_110_">
				<use xlink:href="#SVGID_109_"  overflow="visible"/>
			</clipPath>
			<path clip-path="url(#SVGID_110_)" fill="#FF6E00" d="M268,497.7c0,16.3-13.2,29.5-29.5,29.5s-29.6-13.2-29.6-29.5
				c0-16.3,13.2-29.5,29.5-29.5S268,481.4,268,497.7"/>
		</g>
		<g>
			<defs>
				<polygon id="SVGID_111_" points="221.6,528.9 274.9,528.9 267.9,482.7 				"/>
			</defs>
			<clipPath id="SVGID_112_">
				<use xlink:href="#SVGID_111_"  overflow="visible"/>
			</clipPath>
			<path clip-path="url(#SVGID_112_)" fill="#FF9600" d="M260.9,497.7c0,12.4-10.1,22.5-22.5,22.5c-12.4,0-22.5-10.1-22.5-22.5
				c0-12.4,10.1-22.5,22.5-22.5C250.8,475.2,260.9,485.2,260.9,497.7"/>
		</g>
		<g>
			<defs>
				<polygon id="SVGID_113_" points="221.6,528.9 274.9,528.9 267.9,482.7 				"/>
			</defs>
			<clipPath id="SVGID_114_">
				<use xlink:href="#SVGID_113_"  overflow="visible"/>
			</clipPath>
			<path clip-path="url(#SVGID_114_)" fill="#FF6E00" d="M253.9,497.7c0,8.6-6.9,15.5-15.5,15.5s-15.5-6.9-15.5-15.5
				s6.9-15.5,15.5-15.5C247,482.2,253.9,489.1,253.9,497.7"/>
		</g>
	</g>
</g>
<g id="tooltip1" display="none">
	<text transform="matrix(1 0 0 1 67 130)" display="inline"><tspan x="0" y="0" fill="#FFFFFF" font-family="'MyriadPro-Regular'" font-size="12">chase the right target, just</tspan><tspan x="0" y="14.4" fill="#FFFFFF" font-family="'MyriadPro-Regular'" font-size="12">the right amount to get</tspan><tspan x="0" y="28.8" fill="#FFFFFF" font-family="'MyriadPro-Regular'" font-size="12">into your dream college</tspan></text>
	<path display="inline" fill="#25B5E9" d="M207,170.1c0,1.1-0.5,1.9-1.6,1.9h-69.9l-6.3,7.9l-6.9-7.9H51c-1.1,0-2-0.8-2-1.9V116
		c0-1.1,0.9-2,2-2h154.4c1.1,0,1.6,0.9,1.6,2V170.1z"/>
</g>
<g>
	<g display="none">
		<defs>
			<rect id="SVGID_115_" x="286.6" y="327.1" width="109.4" height="79.7"/>
		</defs>
		<clipPath id="SVGID_116_" display="inline">
			<use xlink:href="#SVGID_115_"  overflow="visible"/>
		</clipPath>
		<path id="sparkle3" display="inline" clip-path="url(#SVGID_116_)" fill="#26ADE0" d="M297.4,339.5c-0.7-2.5-2.6-5.1-4.4-5.9
			c-0.2-0.1-0.2-0.3,0-0.4c1.8-0.7,3.8-3.4,4.4-5.9c0.1-0.2,0.4-0.2,0.4,0c0.7,2.5,2.6,5.1,4.4,5.9c0.2,0.1,0.2,0.3,0,0.4
			c-1.8,0.7-3.8,3.4-4.4,5.9C297.8,339.7,297.4,339.7,297.4,339.5"/>
		<path id="sparkle1" display="inline" clip-path="url(#SVGID_116_)" fill="#26ADE0" d="M393,366.9c-0.4-1.5-1.5-3-2.6-3.5
			c-0.1,0-0.1-0.2,0-0.2c1.1-0.4,2.2-2,2.6-3.5c0-0.1,0.2-0.1,0.3,0c0.4,1.5,1.5,3,2.6,3.5c0.1,0,0.1,0.2,0,0.2
			c-1.1,0.4-2.2,2-2.6,3.5C393.3,367,393.1,367,393,366.9"/>
		<path id="sparkle2" display="inline" clip-path="url(#SVGID_116_)" fill="#B5EDFF" d="M381.8,354.2c-1.1-4-4.2-8.3-7.1-9.5
			c-0.3-0.1-0.3-0.5,0-0.7c2.9-1.2,6.1-5.5,7.1-9.5c0.1-0.4,0.6-0.4,0.7,0c1.1,4,4.2,8.3,7.1,9.5c0.3,0.1,0.3,0.5,0,0.7
			c-2.9,1.2-6.1,5.5-7.1,9.5C382.4,354.6,381.9,354.6,381.8,354.2"/>
	</g>
	<rect x="304.8" y="344.4" fill="#BFF5FF" width="53.5" height="25"/>
	<polygon fill="#DEFAFF" points="358.3,369.4 304.8,369.4 331.5,344.4 	"/>
	<polygon fill="#69CFF2" points="286.6,369.4 304.8,369.4 304.8,344.4 	"/>
	<polygon fill="#69CFF2" points="304.8,369.4 331.5,406.9 358.3,369.4 	"/>
	<polygon fill="#29B8EB" points="286.6,369.4 331.5,406.9 304.8,369.4 	"/>
	<polygon fill="#69CFF2" points="376.5,369.4 358.3,369.4 358.3,344.4 	"/>
	<polygon fill="#29B8EB" points="358.3,369.4 331.5,406.9 376.5,369.4 	"/>
	<g>
		<defs>
			<rect id="SVGID_117_" x="286.6" y="327.1" width="109.4" height="79.7"/>
		</defs>
		<clipPath id="SVGID_118_">
			<use xlink:href="#SVGID_117_"  overflow="visible"/>
		</clipPath>
		<path clip-path="url(#SVGID_118_)" fill="#FFFFFF" d="M326.7,368.5h2.8c6.1,0,8-1.7,8-3.5c0-1.4-1.3-2.5-3.4-2.5
			C330.9,362.4,328,364.8,326.7,368.5 M334.7,357.2c6,0,9.9,3.4,9.9,7.6c0,5.3-6.1,8.2-15.1,8.2h-3.6v0.3c0,4.3,1.9,6.1,5.5,6.1
			c2.4,0,5.1-1,7.2-2.3l2.7,4.9c-3,2-6.6,3.3-10.8,3.3c-7.1,0-12-4.5-12-11.8C318.4,364.2,325.5,357.2,334.7,357.2"/>
		<path clip-path="url(#SVGID_118_)" fill="#FFFFFF" d="M311.9,357.9c-3.1-1-5.6-3.5-6.6-6.6h-1.1c-1,3.1-3.5,5.6-6.6,6.6v1.1
			c3.1,1,5.6,3.5,6.6,6.6h1.1c1-3.1,3.5-5.6,6.6-6.6V357.9z"/>
	</g>
</g>
<path id="plus4" display="none" fill="none" stroke="#783DC4" stroke-width="3" stroke-linecap="round" stroke-linejoin="round" stroke-miterlimit="10" d="
	M279.5,518.1v-6.8 M282.9,514.7h-6.8"/>
<g id="arrow">
	<polygon fill="#96A8B0" points="265,454.7 263.2,447.6 255.7,459.2 257.5,466.2 264.6,465 272.1,453.4 	"/>
	<g>
		<defs>
			<rect id="SVGID_119_" x="195.9" y="441.3" width="104.8" height="95"/>
		</defs>
		<clipPath id="SVGID_120_">
			<use xlink:href="#SVGID_119_"  overflow="visible"/>
		</clipPath>
		<path clip-path="url(#SVGID_120_)" fill="#4D636E" d="M273.3,453.3l-7.1,1.3l-0.5-1.9l-5.5,8.5l-2,3.1v0l-22,34.1
			c-0.4,0.6-0.2,1.5,0.4,1.9c0.7,0.4,1.5,0.2,1.9-0.4l22-34.1l5.2-0.9L273.3,453.3z"/>
	</g>
</g>
<g id="plus1" display="none">
	
		<line display="inline" fill="none" stroke="#783DC4" stroke-width="5" stroke-linecap="round" stroke-linejoin="round" stroke-miterlimit="10" x1="195.9" y1="474.7" x2="195.9" y2="461.6"/>
	
		<line display="inline" fill="none" stroke="#783DC4" stroke-width="5" stroke-linecap="round" stroke-linejoin="round" stroke-miterlimit="10" x1="202.3" y1="468.2" x2="189.5" y2="468.2"/>
</g>
<g id="plus3" display="none">
	
		<line display="inline" fill="none" stroke="#D4A3FF" stroke-width="3" stroke-linecap="round" stroke-linejoin="round" stroke-miterlimit="10" x1="263.9" y1="534.5" x2="263.9" y2="523.5"/>
	
		<line display="inline" fill="none" stroke="#D4A3FF" stroke-width="3" stroke-linecap="round" stroke-linejoin="round" stroke-miterlimit="10" x1="269.4" y1="529" x2="258.4" y2="529"/>
</g>
<g id="plus2" display="none">
	
		<line display="inline" fill="none" stroke="#D4A3FF" stroke-width="3" stroke-linecap="round" stroke-linejoin="round" stroke-miterlimit="10" x1="221.6" y1="462.4" x2="221.6" y2="451.4"/>
	
		<line display="inline" fill="none" stroke="#D4A3FF" stroke-width="3" stroke-linecap="round" stroke-linejoin="round" stroke-miterlimit="10" x1="227.1" y1="456.9" x2="216.1" y2="456.9"/>
</g>
<g>
	<g>
		<circle fill="#2EB9EB" cx="75.6" cy="21.3" r="17.5"/>
		<g>
			<path fill="#FFFFFF" d="M77.8,12c4,0,6.5,2.2,6.5,5c0,3.5-4,5.4-10,5.4h-2.4v0.2c0,2.8,1.3,4,3.6,4c1.6,0,3.3-0.7,4.8-1.5
				l1.8,3.2c-2,1.3-4.3,2.2-7.1,2.2c-4.7,0-7.9-3-7.9-7.8C67,16.7,71.7,12,77.8,12z M72.5,19.5h1.8c4,0,5.3-1.1,5.3-2.3
				c0-0.9-0.8-1.7-2.2-1.7C75.3,15.5,73.4,17.1,72.5,19.5z"/>
		</g>
	</g>
</g>
<g>
	<g>
		<circle fill="#2EB9EB" cx="144.7" cy="727.5" r="17.5"/>
		<g>
			<path fill="#FFFFFF" d="M146.9,718.2c4,0,6.5,2.2,6.5,5c0,3.5-4,5.4-10,5.4H141v0.2c0,2.8,1.3,4,3.6,4c1.6,0,3.3-0.7,4.8-1.5
				l1.8,3.2c-2,1.3-4.3,2.2-7.1,2.2c-4.7,0-7.9-3-7.9-7.8C136.1,722.9,140.8,718.2,146.9,718.2z M141.6,725.7h1.8
				c4,0,5.3-1.1,5.3-2.3c0-0.9-0.8-1.7-2.2-1.7C144.4,721.7,142.5,723.3,141.6,725.7z"/>
		</g>
	</g>
</g>
</svg>
