<?xml version="1.0" encoding="utf-8"?>
<!-- Generator: Adobe Illustrator 18.0.0, SVG Export Plug-In . SVG Version: 6.00 Build 0)  -->
<!DOCTYPE svg PUBLIC "-//W3C//DTD SVG 1.1//EN" "http://www.w3.org/Graphics/SVG/1.1/DTD/svg11.dtd">
<svg version="1.1" id="Layer_1" xmlns="http://www.w3.org/2000/svg" xmlns:xlink="http://www.w3.org/1999/xlink" x="0px" y="0px"
	 viewBox="0 0 612 792" enable-background="new 0 0 612 792" xml:space="preserve">
<path fill="none" stroke="#CCCCCC" stroke-width="3" stroke-miterlimit="10" d="M141.9,12.7v190.4c0,4,1.6,7.8,4.4,10.7l0,0
	c2.9,2.9,6.7,4.4,10.7,4.4h208.5c3.4,0,6.7,1.4,9.1,3.8l0,0c2.4,2.4,3.8,5.7,3.8,9.1v57.1c0,5.2,2.1,10,5.8,13.5l0,0
	c3.5,3.3,8,5.1,12.8,5.1h68.3c4.9,0,8.9,3.9,8.9,8.9v118.9c0,3.2-0.8,6.1-2.5,8.8l0,0c-3,4.8-8.2,7.6-13.8,7.6H350
	c-4.8,0-9.3-1.8-12.8-5l0,0c-3.9-3.6-6.2-8.7-6.2-14V425c0-3.1-1.2-6-3.3-8.2l0,0c-2.3-2.4-5.5-3.9-8.9-3.9h-28.7
	c-3.2,0-6.2-1.4-8.2-3.8l0,0c-1.7-2-2.5-4.4-2.5-7v-7.8c0-3-1.3-5.7-3.4-7.6l0,0c-1.9-1.8-4.4-2.7-7-2.7h-21
	c-4.2,0-8.1-1.9-10.8-5.1l0,0c-2.1-2.5-3.2-5.7-3.2-8.9v-14.5l0,0c-4.5-4.5-10.8-7.2-17.2-7.2h-66.4c-5.4,0-10.5,2.6-13.6,7.1l0,0
	c-2,2.9-3.1,6.1-3.1,9.6v186.8c0,5.4,2.4,10.6,6.7,13.9l0,0c3.3,2.6,7.3,4.1,11.4,4.1h187c4.3,0,8.6,1.4,12,3.9l0,0
	c5.3,3.8,8.3,9.9,8.3,16.5v49.6l-10,11.1H234.6c-5.4,0-10.6,2-14.6,5.5l0,0c-4.8,4.2-7.5,10.2-7.4,16.6l0.4,107.3"/>
<path id="fillpath" fill="none" stroke="#29B8EB" stroke-width="3" stroke-miterlimit="10" d="M141.9,12.1v190.4
	c0,4,1.6,7.8,4.4,10.7l0,0c2.9,2.9,6.7,4.4,10.7,4.4h208.5c3.4,0,6.7,1.4,9.1,3.8l0,0c2.4,2.4,3.8,5.7,3.8,9.1v57.1
	c0,5.2,2.1,10,5.8,13.5l0,0c3.5,3.3,8,5.1,12.8,5.1h68.3c4.9,0,8.9,3.9,8.9,8.9V434c0,3.2-0.8,6.1-2.5,8.8l0,0
	c-3,4.8-8.2,7.6-13.8,7.6H350c-4.8,0-9.3-1.8-12.8-5l0,0c-3.9-3.6-6.2-8.7-6.2-14v-6.9c0-3.1-1.2-6-3.3-8.2l0,0
	c-2.3-2.4-5.5-3.9-8.9-3.9h-28.7c-3.2,0-6.2-1.4-8.2-3.8l0,0c-1.7-2-2.5-4.4-2.5-7v-7.8c0-3-1.3-5.7-3.4-7.6l0,0
	c-1.9-1.8-4.4-2.7-7-2.7h-21c-4.2,0-8.1-1.9-10.8-5.1l0,0c-2.1-2.5-3.2-5.7-3.2-8.9V355l0,0c-4.5-4.5-10.8-7.2-17.2-7.2h-66.4
	c-5.4,0-10.5,2.6-13.6,7.1l0,0c-2,2.9-3.1,6.1-3.1,9.6v186.8c0,5.4,2.4,10.6,6.7,13.9l0,0c3.3,2.6,7.3,4.1,11.4,4.1h187
	c4.3,0,8.6,1.4,12,3.9l0,0c5.3,3.8,8.3,9.9,8.3,16.5v49.6l-10,11.1H234.6c-5.4,0-10.6,2-14.6,5.5l0,0c-4.8,4.2-7.5,10.2-7.4,16.6
	l0.4,107.3"/>
<g>
	<circle id="circle5" fill="#96A9B1" cx="182.8" cy="346.6" r="15.2"/>
	<text transform="matrix(1 0 0 1 177.7568 352.6108)" fill="#FFFFFF" font-family="'ArialMT'" font-size="16.2198">5</text>
	<circle id="circle4" fill="#96A9B1" cx="237.9" cy="348.3" r="15.2"/>
	<g>
		<text transform="matrix(1 0 0 1 231.6865 353.8652)" fill="#FFFFFF" font-family="'ArialMT'" font-size="16.2198">4</text>
	</g>
	<circle id="circle3" fill="#96A9B1" cx="265.2" cy="384.5" r="15.2"/>
	<text transform="matrix(1 0 0 1 260.4131 390.8808)" fill="#FFFFFF" font-family="'ArialMT'" font-size="16.2198">3</text>
	<circle id="circle2" fill="#96A9B1" cx="315.5" cy="414.8" r="15.2"/>
	<text transform="matrix(1 0 0 1 311.3203 419.999)" fill="#FFFFFF" font-family="'ArialMT'" font-size="16.2198">2</text>
	<g>
		<circle id="circle1" fill="#96A9B1" cx="341.1" cy="448.2" r="15.2"/>
		<text transform="matrix(1 0 0 1 337.2295 454.5234)" fill="#FFFFFF" font-family="'ArialMT'" font-size="16.2198">1</text>
	</g>
</g>
<g>
	<rect x="272.2" y="515.3" fill="#3D4347" width="37" height="19"/>
	<rect x="294.4" y="529.1" fill="#3D4347" width="14.8" height="23.2"/>
	<path fill="#3D4347" d="M308.6,551.9c0,20.2-16.2,37-36.3,37s-36.5-16.8-36.5-37c0-20.2,16.6-36.3,36.7-36.3
		C292.7,515.5,308.6,531.7,308.6,551.9z"/>
	<path fill="#ADBAC1" d="M308.9,568.7c0,20.2-16.2,36.4-36.3,36.4s-36.7-16.3-36.7-36.4s16.4-36.5,36.5-36.5
		S308.9,548.5,308.9,568.7z"/>
	<path fill="#ADBAC1" d="M240.5,569.3c0,4-3.3,6.9-7.3,6.9s-7-3-7-7c0-4,3-7,7-7S240.5,565.4,240.5,569.3z"/>
	<polygon fill="#253135" points="243.7,541 235.2,552.3 235.2,561.8 243.7,561.8 	"/>
	<polygon fill="#3D4347" points="298.6,541 307.1,552.3 307.1,561.8 298.6,561.8 	"/>
	<polygon fill="#3D4347" points="300.7,556.5 241.6,556.5 241.6,539 271.2,527.6 300.7,539 	"/>
	<circle fill="#253135" cx="281.8" cy="541.5" r="18.1"/>
	<circle fill="#253135" cx="263.7" cy="536.8" r="9.8"/>
	<circle fill="#3D4347" cx="257.7" cy="541" r="9.8"/>
	<rect x="295.4" y="540.7" fill="#253135" width="3.2" height="10.6"/>
	<ellipse fill="#95A9B1" cx="272.3" cy="549.3" rx="27.5" ry="17.2"/>
	<rect x="243.7" y="549.1" fill="#95A9B1" width="54.9" height="6.3"/>
	<ellipse fill="#ADBAC1" cx="272.3" cy="555.9" rx="27.5" ry="17.2"/>
	<polygon fill="#E6EDEF" points="266.1,570.2 272.3,556 278.5,570.2 	"/>
	<path fill="#253135" d="M251.1,561.2c0-3.1,2.9-5.4,5.9-5.4c3.1,0,5.6,2.2,5.6,5.4"/>
	<rect x="233.1" y="561.8" fill="#ADBAC1" width="10.6" height="7.4"/>
	<path fill="#ADBAC1" d="M303.5,569.3c0,4,3.2,6.9,7.2,6.9c4,0,7.5-3,7.5-7c0-4-3.6-7-7.5-7C306.7,562.2,303.5,565.4,303.5,569.3z"
		/>
	<rect x="303.9" y="552.3" fill="#3D4347" width="5.3" height="9.5"/>
	<rect x="298.6" y="561.8" fill="#ADBAC1" width="12.7" height="7.4"/>
	<circle fill="#95A9B1" cx="272.3" cy="598.4" r="5.6"/>
	<polygon fill="#ADBAC1" points="278.5,602.3 271.2,604.8 263.8,602.3 263.8,597.7 278.5,597.7 	"/>
	<path fill="#253135" d="M293.3,561.2c0-3.1-2.7-5.4-5.8-5.4c-3.1,0-5.7,2.2-5.7,5.4"/>
	<path fill="#95A9B1" d="M272.3,576.5c3.5,0,6.2-3.1,6.2-6.2h-12.5C266,573.4,268.8,576.5,272.3,576.5z"/>
	<g>
		<path fill="#FFFFFF" d="M254,579.7c3,7.4,10,12,18.2,12s15.2-4.6,18.2-12H254z"/>
	</g>
	
		<line fill="none" stroke="#C6CED2" stroke-width="7" stroke-linecap="round" stroke-miterlimit="10" x1="252.1" y1="567.6" x2="259.5" y2="567.6"/>
	
		<line fill="none" stroke="#C6CED2" stroke-width="7" stroke-linecap="round" stroke-miterlimit="10" x1="292.3" y1="567.6" x2="283.8" y2="567.6"/>
	<rect x="235.2" y="529.1" fill="#3D4347" width="8.4" height="32.7"/>
</g>
<g id="bubble2_1_" display="none">
	<path display="inline" fill="#2EB9EB" d="M224.8,506h-18.2c-5.3,0-10,4.1-10,9.6v2c0,5.5,4.8,9.9,10,9.9h10.2v3.3
		c0,0.5,0.5,0.8,1,0.5l4.8-3.8h2.1c5.3,0,9.1-4.4,9.1-9.9v-2C233.9,510.2,230.1,506,224.8,506"/>
	<path display="inline" fill="#FFFFFF" d="M218.9,521.9c0,1,0.7,1.7,1.7,1.7c1,0,1.7-0.7,1.7-1.7c0-1-0.7-1.7-1.7-1.7
		C219.6,520.2,218.9,520.9,218.9,521.9"/>
	<path display="inline" fill="#FFFFFF" d="M212.1,521.9c0,1,0.7,1.7,1.7,1.7c1,0,1.7-0.7,1.7-1.7c0-1-0.7-1.7-1.7-1.7
		S212.1,520.9,212.1,521.9"/>
	<path display="inline" fill="#FFFFFF" d="M205.4,521.9c0,1,0.7,1.7,1.7,1.7c1,0,1.7-0.7,1.7-1.7c0-1-0.7-1.7-1.7-1.7
		C206.1,520.2,205.4,520.9,205.4,521.9"/>
</g>
<g id="bubble1" display="none">
	<path display="inline" fill="#7E63AB" d="M208.4,534.3h16.3c4.8,0,8.3,3.9,8.3,8.8v1.8c0,4.9-3.6,9.5-8.3,9.5h-8.9v2.3
		c0,0.5-0.6,1.1-1,0.7l-4.4-3.2h-1.9c-4.8,0-8.6-4.5-8.6-9.5V543C199.9,538.2,203.7,534.3,208.4,534.3"/>
	<path display="inline" fill="#FFFFFF" d="M208.8,548.7c0,0.8-0.6,1.5-1.5,1.5s-1.5-0.6-1.5-1.5c0-0.8,0.6-1.5,1.5-1.5
		C208.1,547.2,208.8,547.9,208.8,548.7"/>
	<path display="inline" fill="#FFFFFF" d="M214.9,548.7c0,0.8-0.6,1.5-1.5,1.5s-1.5-0.6-1.5-1.5c0-0.8,0.6-1.5,1.5-1.5
		C214.2,547.2,214.9,547.9,214.9,548.7"/>
	<path display="inline" fill="#FFFFFF" d="M220.9,548.7c0,0.8-0.6,1.5-1.5,1.5s-1.5-0.6-1.5-1.5c0-0.8,0.6-1.5,1.5-1.5
		C220.3,547.2,220.9,547.9,220.9,548.7"/>
</g>
<g id="tooltip_x5F_5" display="none">
	<path display="inline" fill="#2AB5E9" d="M327,502.2c0,0.9-0.2,1.5-1,1.5h-49.6l-4.4,6.5l-4.9-6.5h-50.6c-0.7,0-1.4-0.6-1.4-1.5
		v-44.8c0-0.9,0.6-1.7,1.4-1.7h109.6c0.7,0,1,0.9,1,1.7v44.8H327z"/>
	
		<text transform="matrix(0.8577 0 0 1 221.4149 474.7382)" display="inline" fill="#FFFFFF" font-family="'MyriadPro-Regular'" font-size="14.7745">Interactice  practice</text>
	
		<text transform="matrix(0.8577 0 0 1 221.4149 492.4667)" display="inline" fill="#FFFFFF" font-family="'MyriadPro-Regular'" font-size="14.7745"> with gamification</text>
</g>
<g id="clock">
	<g>
		<g>
			<g>
				<defs>
					<rect id="SVGID_1_" x="438.6" y="271" width="64.5" height="72"/>
				</defs>
				<clipPath id="SVGID_2_">
					<use xlink:href="#SVGID_1_"  overflow="visible"/>
				</clipPath>
				
					<path clip-path="url(#SVGID_2_)" fill="none" stroke="#A9463C" stroke-width="9.9" stroke-linecap="round" stroke-linejoin="round" stroke-miterlimit="10" d="
					M483.4,331.4l5.4,8.8 M457.1,331.4l-5.4,8.8"/>
			</g>
		</g>
		<g>
			<g>
				<defs>
					<rect id="SVGID_3_" x="438.6" y="271" width="64.5" height="72"/>
				</defs>
				<clipPath id="SVGID_4_">
					<use xlink:href="#SVGID_3_"  overflow="visible"/>
				</clipPath>
				<path clip-path="url(#SVGID_4_)" fill="#FFFFFF" d="M470.1,278.3c-7.8,0-15.1,3.1-20.6,8.6s-8.6,12.8-8.6,20.6
					s3.1,15.1,8.6,20.6c5.5,5.5,12.9,8.6,20.6,8.6c7.8,0,15.1-3.1,20.6-8.6c5.5-5.5,8.6-12.8,8.6-20.6s-3.1-15.1-8.6-20.6
					C485.2,281.2,477.9,278.3,470.1,278.3"/>
			</g>
		</g>
		<g>
			<g>
				<defs>
					<rect id="SVGID_5_" x="438.6" y="271" width="64.5" height="72"/>
				</defs>
				<clipPath id="SVGID_6_">
					<use xlink:href="#SVGID_5_"  overflow="visible"/>
				</clipPath>
				<path clip-path="url(#SVGID_6_)" fill="none" stroke="#F36E5A" stroke-width="8.1" stroke-miterlimit="10" d="M470.1,278.3
					c-7.8,0-15.1,3.1-20.6,8.6s-8.6,12.8-8.6,20.6s3.1,15.1,8.6,20.6c5.5,5.5,12.9,8.6,20.6,8.6c7.8,0,15.1-3.1,20.6-8.6
					c5.5-5.5,8.6-12.8,8.6-20.6s-3.1-15.1-8.6-20.6C485.2,281.2,477.9,278.3,470.1,278.3"/>
			</g>
		</g>
		<g>
			<g>
				<defs>
					<rect id="SVGID_7_" x="438.6" y="271" width="64.5" height="72"/>
				</defs>
				<clipPath id="SVGID_8_">
					<use xlink:href="#SVGID_7_"  overflow="visible"/>
				</clipPath>
				<path clip-path="url(#SVGID_8_)" fill="#D24228" d="M473.9,307.3c0,2.1-1.7,3.8-3.8,3.8s-3.8-1.7-3.8-3.8s1.7-3.8,3.8-3.8
					S473.9,305.2,473.9,307.3"/>
			</g>
		</g>
		<g>
			<g>
				<defs>
					<rect id="SVGID_9_" x="438.6" y="271" width="64.5" height="72"/>
				</defs>
				<clipPath id="SVGID_10_">
					<use xlink:href="#SVGID_9_"  overflow="visible"/>
				</clipPath>
				
					<circle clip-path="url(#SVGID_10_)" fill="none" stroke="#D24228" stroke-width="0.9" stroke-miterlimit="10" cx="470.1" cy="307.3" r="3.8"/>
			</g>
		</g>
	</g>
	
		<line id="hand1" fill="none" stroke="#D24228" stroke-width="4.5" stroke-linecap="round" stroke-linejoin="round" stroke-miterlimit="10" x1="470.1" y1="290.4" x2="470.1" y2="307.3"/>
	
		<line id="hand2" fill="none" stroke="#D24228" stroke-width="4.5" stroke-linecap="round" stroke-linejoin="round" stroke-miterlimit="10" x1="470.6" y1="307.3" x2="479.3" y2="316"/>
	<g>
		<g>
			<g>
				<defs>
					<rect id="SVGID_11_" x="438.6" y="271" width="64.5" height="72"/>
				</defs>
				<clipPath id="SVGID_12_">
					<use xlink:href="#SVGID_11_"  overflow="visible"/>
				</clipPath>
				<path clip-path="url(#SVGID_12_)" fill="#F36E5A" d="M449.1,307.4c0,0.7-0.5,1.3-1.3,1.3c-0.7,0-1.3-0.5-1.3-1.3
					c0-0.7,0.5-1.3,1.3-1.3C448.5,306.1,449.1,306.7,449.1,307.4"/>
			</g>
		</g>
		<g>
			<g>
				<defs>
					<rect id="SVGID_13_" x="438.6" y="271" width="64.5" height="72"/>
				</defs>
				<clipPath id="SVGID_14_">
					<use xlink:href="#SVGID_13_"  overflow="visible"/>
				</clipPath>
				<path clip-path="url(#SVGID_14_)" fill="#F36E5A" d="M493.8,307.4c0,0.7-0.5,1.3-1.3,1.3c-0.7,0-1.3-0.5-1.3-1.3
					c0-0.7,0.5-1.3,1.3-1.3C493.1,306.1,493.8,306.7,493.8,307.4"/>
			</g>
		</g>
		<g>
			<g>
				<defs>
					<rect id="SVGID_15_" x="438.6" y="271" width="64.5" height="72"/>
				</defs>
				<clipPath id="SVGID_16_">
					<use xlink:href="#SVGID_15_"  overflow="visible"/>
				</clipPath>
				<path clip-path="url(#SVGID_16_)" fill="#F36E5A" d="M470.1,286.3c-0.7,0-1.3-0.5-1.3-1.3c0-0.7,0.5-1.3,1.3-1.3
					c0.7,0,1.3,0.5,1.3,1.3C471.4,285.8,470.8,286.3,470.1,286.3"/>
			</g>
		</g>
		<g>
			<g>
				<defs>
					<rect id="SVGID_17_" x="438.6" y="271" width="64.5" height="72"/>
				</defs>
				<clipPath id="SVGID_18_">
					<use xlink:href="#SVGID_17_"  overflow="visible"/>
				</clipPath>
				<path clip-path="url(#SVGID_18_)" fill="#F36E5A" d="M470.1,331.1c-0.7,0-1.3-0.5-1.3-1.3c0-0.7,0.5-1.3,1.3-1.3
					c0.7,0,1.3,0.5,1.3,1.3C471.4,330.4,470.8,331.1,470.1,331.1"/>
			</g>
		</g>
	</g>
	<g>
		<g>
			<g>
				<defs>
					<polygon id="SVGID_19_" points="462.7,339.6 503.2,341.4 503.2,301.9 					"/>
				</defs>
				<clipPath id="SVGID_20_">
					<use xlink:href="#SVGID_19_"  overflow="visible"/>
				</clipPath>
				<path clip-path="url(#SVGID_20_)" fill="#EBEBEB" d="M470.1,278.3c-7.8,0-15.1,3.1-20.6,8.6s-8.6,12.8-8.6,20.6
					s3.1,15.1,8.6,20.6c5.5,5.5,12.9,8.6,20.6,8.6c7.8,0,15.1-3.1,20.6-8.6c5.5-5.5,8.6-12.8,8.6-20.6s-3.1-15.1-8.6-20.6
					C485.2,281.2,477.9,278.3,470.1,278.3"/>
			</g>
		</g>
		<g>
			<g>
				<defs>
					<polygon id="SVGID_21_" points="462.7,339.6 503.2,341.4 503.2,301.9 					"/>
				</defs>
				<clipPath id="SVGID_22_">
					<use xlink:href="#SVGID_21_"  overflow="visible"/>
				</clipPath>
				<path clip-path="url(#SVGID_22_)" fill="none" stroke="#A9463C" stroke-width="8.1" stroke-miterlimit="10" d="M470.1,278.3
					c-7.8,0-15.1,3.1-20.6,8.6s-8.6,12.8-8.6,20.6s3.1,15.1,8.6,20.6c5.5,5.5,12.9,8.6,20.6,8.6c7.8,0,15.1-3.1,20.6-8.6
					c5.5-5.5,8.6-12.8,8.6-20.6s-3.1-15.1-8.6-20.6C485.2,281.2,477.9,278.3,470.1,278.3"/>
			</g>
		</g>
	</g>
	<g>
		<g>
			<g>
				<defs>
					<rect id="SVGID_23_" x="438.6" y="271" width="64.5" height="72"/>
				</defs>
				<clipPath id="SVGID_24_">
					<use xlink:href="#SVGID_23_"  overflow="visible"/>
				</clipPath>
				
					<line clip-path="url(#SVGID_24_)" fill="none" stroke="#A9463C" stroke-width="9.9" stroke-linecap="round" stroke-linejoin="round" stroke-miterlimit="10" x1="462.2" y1="273.8" x2="478" y2="273.8"/>
			</g>
		</g>
	</g>
</g>
<path id="three" display="none" fill="none" stroke="#D24228" stroke-width="2.7" stroke-linecap="round" stroke-miterlimit="10" d="
	M513.6,275.6c-2.4-4.3-5.5-8.2-9.1-11.8c-2.6-2.6-5.6-5.1-8.7-7.1"/>
<path id="one" display="none" fill="none" stroke="#D24228" stroke-width="2.7" stroke-linecap="round" stroke-miterlimit="10" d="
	M492.5,269.7c1.2,1,2.2,1.9,3.3,3c2,2,3.7,4.1,5.3,6.3"/>
<path id="two" display="none" fill="none" stroke="#D24228" stroke-width="2.7" stroke-linecap="round" stroke-miterlimit="10" d="
	M507.4,277.3c-2-3.3-4.4-6.3-7.2-9.1c-1.9-1.9-3.8-3.6-5.9-5.1"/>
<g id="calendar">
	<g>
		<g>
			<g>
				<defs>
					<rect id="SVGID_25_" x="154.1" y="182.9" width="144.9" height="115.9"/>
				</defs>
				<clipPath id="SVGID_26_">
					<use xlink:href="#SVGID_25_"  overflow="visible"/>
				</clipPath>
				<path clip-path="url(#SVGID_26_)" fill="#FFC859" d="M299,215.7v51.3c0,7.5-6.2,13.5-13.7,13.5h-82.8c-7.5,0-13.6-6-13.6-13.5
					v-51.3L299,215.7L299,215.7z"/>
			</g>
		</g>
		<g>
			<g>
				<defs>
					<rect id="SVGID_27_" x="154.1" y="182.9" width="144.9" height="115.9"/>
				</defs>
				<clipPath id="SVGID_28_">
					<use xlink:href="#SVGID_27_"  overflow="visible"/>
				</clipPath>
				<path clip-path="url(#SVGID_28_)" fill="#F8961D" d="M196,217.1v50.1c0,3.8,3.1,6.9,6.9,6.9h82.8c3.8,0,6.9-3.1,6.9-6.9v-50.1
					H196z"/>
			</g>
		</g>
		<g>
			<g>
				<defs>
					<rect id="SVGID_29_" x="154.1" y="182.9" width="144.9" height="115.9"/>
				</defs>
				<clipPath id="SVGID_30_">
					<use xlink:href="#SVGID_29_"  overflow="visible"/>
				</clipPath>
				<path clip-path="url(#SVGID_30_)" fill="#FFFFFF" d="M292.5,256.2v-39H196v50.1c0,3.8,3.1,6.9,6.9,6.9h71.9L292.5,256.2z"/>
			</g>
		</g>
	</g>
	<rect x="204.8" y="227.9" fill="#E9EDEF" width="16.6" height="16.6"/>
	<rect x="225" y="227.9" fill="#E9EDEF" width="16.6" height="16.6"/>
	<rect x="245.1" y="227.9" fill="#E9EDEF" width="16.6" height="16.6"/>
	<rect x="265.2" y="227.9" fill="#E9EDEF" width="16.6" height="16.6"/>
	<rect x="204.8" y="247.4" fill="#E9EDEF" width="16.6" height="16.6"/>
	<rect x="225" y="247.4" fill="#E9EDEF" width="16.6" height="16.6"/>
	<rect x="245.1" y="247.4" fill="#E9EDEF" width="16.6" height="16.6"/>
	<rect x="265.2" y="247.4" fill="#E9EDEF" width="16.6" height="16.6"/>
	
		<rect x="162.2" y="243.4" transform="matrix(-0.9546 -0.298 0.298 -0.9546 242.9758 579.5183)" fill="#EB4767" width="7" height="55.7"/>
	<polygon fill="#EB4767" points="176.3,237.5 173.8,240.3 176.7,241.2 	"/>
	<polygon fill="#FFE0A6" points="177.3,245.8 176.7,241.2 173.8,240.3 170.7,243.7 	"/>
	<g>
		<g>
			<g>
				<defs>
					<rect id="SVGID_31_" x="154.1" y="182.9" width="144.9" height="115.9"/>
				</defs>
				<clipPath id="SVGID_32_">
					<use xlink:href="#SVGID_31_"  overflow="visible"/>
				</clipPath>
				<path clip-path="url(#SVGID_32_)" fill="#A9463C" d="M299,206.1c0-7.5-6.1-13.7-13.7-13.7h-82.8c-7.5,0-13.7,6.1-13.7,13.7v9.3
					h110.1L299,206.1L299,206.1z"/>
			</g>
		</g>
		<g>
			<g>
				<defs>
					<rect id="SVGID_33_" x="154.1" y="182.9" width="144.9" height="115.9"/>
				</defs>
				<clipPath id="SVGID_34_">
					<use xlink:href="#SVGID_33_"  overflow="visible"/>
				</clipPath>
				<path clip-path="url(#SVGID_34_)" fill="#FFFFFF" d="M212.1,204.1c0,2.2-1.8,4.1-4.1,4.1c-2.3,0-4.1-1.8-4.1-4.1
					c0-2.2,1.8-4.1,4.1-4.1C210.3,200,212.1,201.9,212.1,204.1"/>
			</g>
		</g>
		<g>
			<g>
				<defs>
					<rect id="SVGID_35_" x="154.1" y="182.9" width="144.9" height="115.9"/>
				</defs>
				<clipPath id="SVGID_36_">
					<use xlink:href="#SVGID_35_"  overflow="visible"/>
				</clipPath>
				<path clip-path="url(#SVGID_36_)" fill="#FFFFFF" d="M284.6,204.1c0,2.2-1.8,4.1-4.1,4.1c-2.2,0-4.1-1.8-4.1-4.1
					c0-2.2,1.8-4.1,4.1-4.1C282.8,200,284.6,201.9,284.6,204.1"/>
			</g>
		</g>
		<g>
			<g>
				<defs>
					<rect id="SVGID_37_" x="154.1" y="182.9" width="144.9" height="115.9"/>
				</defs>
				<clipPath id="SVGID_38_">
					<use xlink:href="#SVGID_37_"  overflow="visible"/>
				</clipPath>
				<path clip-path="url(#SVGID_38_)" fill="#F8961D" d="M208,206.1c-1.5,0-2.5-1.1-2.5-2.5v-17.7c0-1.5,1.1-3,2.5-3
					c1.5,0,2.7,1.3,2.7,2.7v17.7C210.7,205,209.5,206.1,208,206.1"/>
			</g>
		</g>
		<g>
			<g>
				<defs>
					<rect id="SVGID_39_" x="154.1" y="182.9" width="144.9" height="115.9"/>
				</defs>
				<clipPath id="SVGID_40_">
					<use xlink:href="#SVGID_39_"  overflow="visible"/>
				</clipPath>
				<path clip-path="url(#SVGID_40_)" fill="#F8961D" d="M280.6,206.1c-1.5,0-2.7-1.3-2.7-2.7v-17.7c0-1.5,1.3-2.7,2.7-2.7
					c1.5,0,2.5,1.5,2.5,3v17.7C283,205.2,282,206.1,280.6,206.1"/>
			</g>
		</g>
	</g>
	<rect x="188.9" y="215.5" fill="#F8961D" width="110.1" height="4.8"/>
	<g>
		<g>
			<g>
				<defs>
					<rect id="SVGID_41_" x="154.1" y="182.9" width="144.9" height="115.9"/>
				</defs>
				<clipPath id="SVGID_42_">
					<use xlink:href="#SVGID_41_"  overflow="visible"/>
				</clipPath>
				<path clip-path="url(#SVGID_42_)" fill="#F2C27D" d="M279.4,256.4c-2.5,0-4.6,2.1-4.6,4.6v13.1l17.7-17.7H279.4z"/>
			</g>
		</g>
		<g>
			<g>
				<defs>
					<rect id="SVGID_43_" x="154.1" y="182.9" width="144.9" height="115.9"/>
				</defs>
				<clipPath id="SVGID_44_">
					<use xlink:href="#SVGID_43_"  overflow="visible"/>
				</clipPath>
				<path id="tick1" display="none" clip-path="url(#SVGID_44_)" fill="#50B966" d="M206.4,233.6l5.7,7.4l11.2-14.9
					c0.4-0.5,0.3-1.3-0.2-1.7c-0.5-0.4-1.3-0.3-1.7,0.2l-9.3,12.5l-3.8-5c-0.4-0.5-1.2-0.6-1.7-0.2S206,233.1,206.4,233.6z"/>
			</g>
		</g>
		<g>
			<g>
				<defs>
					<rect id="SVGID_45_" x="154.1" y="182.9" width="144.9" height="115.9"/>
				</defs>
				<clipPath id="SVGID_46_">
					<use xlink:href="#SVGID_45_"  overflow="visible"/>
				</clipPath>
				<path id="tick2" display="none" clip-path="url(#SVGID_46_)" fill="#50B966" d="M227.6,233.6l5.7,7.4l11.2-14.9
					c0.4-0.5,0.3-1.3-0.2-1.7c-0.5-0.4-1.3-0.3-1.7,0.2l-9.3,12.5l-3.8-5c-0.4-0.5-1.2-0.6-1.7-0.2S227.2,233.1,227.6,233.6z"/>
			</g>
		</g>
		<g>
			<g>
				<defs>
					<rect id="SVGID_47_" x="154.1" y="182.9" width="144.9" height="115.9"/>
				</defs>
				<clipPath id="SVGID_48_">
					<use xlink:href="#SVGID_47_"  overflow="visible"/>
				</clipPath>
				<path id="tick3" display="none" clip-path="url(#SVGID_48_)" fill="#50B966" d="M206.4,254l5.7,7.4l11.2-14.9
					c0.4-0.5,0.3-1.3-0.2-1.7c-0.5-0.4-1.3-0.3-1.7,0.2l-9.3,12.5l-3.8-5c-0.4-0.5-1.2-0.6-1.7-0.2S206,253.4,206.4,254z"/>
			</g>
		</g>
		<g>
			<g>
				<defs>
					<rect id="SVGID_49_" x="154.1" y="182.9" width="144.9" height="115.9"/>
				</defs>
				<clipPath id="SVGID_50_">
					<use xlink:href="#SVGID_49_"  overflow="visible"/>
				</clipPath>
				<path id="tick4" display="none" clip-path="url(#SVGID_50_)" fill="#50B966" d="M227.6,254l5.7,7.4l11.2-14.9
					c0.4-0.5,0.3-1.3-0.2-1.7c-0.5-0.4-1.3-0.3-1.7,0.2l-9.3,12.5l-3.8-5c-0.4-0.5-1.2-0.6-1.7-0.2S227.2,253.4,227.6,254z"/>
			</g>
		</g>
		<g>
			<g>
				<defs>
					<rect id="SVGID_51_" x="154.1" y="182.9" width="144.9" height="115.9"/>
				</defs>
				<clipPath id="SVGID_52_">
					<use xlink:href="#SVGID_51_"  overflow="visible"/>
				</clipPath>
				<path id="tick5" display="none" clip-path="url(#SVGID_52_)" fill="#50B966" d="M248.2,233.6l5.7,7.4l11.2-14.9
					c0.4-0.5,0.3-1.3-0.2-1.7c-0.5-0.4-1.3-0.3-1.7,0.2l-9.3,12.5l-3.8-5c-0.4-0.5-1.2-0.6-1.7-0.2S247.8,233.1,248.2,233.6z"/>
			</g>
		</g>
		<g>
			<g>
				<defs>
					<rect id="SVGID_53_" x="154.1" y="182.9" width="144.9" height="115.9"/>
				</defs>
				<clipPath id="SVGID_54_">
					<use xlink:href="#SVGID_53_"  overflow="visible"/>
				</clipPath>
				<path id="tick6" display="none" clip-path="url(#SVGID_54_)" fill="#50B966" d="M269.5,233.6l5.7,7.4l11.2-14.9
					c0.4-0.5,0.3-1.3-0.2-1.7c-0.5-0.4-1.3-0.3-1.7,0.2l-9.3,12.5l-3.8-5c-0.4-0.5-1.2-0.6-1.7-0.2S269,233.1,269.5,233.6z"/>
			</g>
		</g>
	</g>
</g>
<g id="tooltip_x5F_1" display="none">
	<path display="inline" fill="#2AB5E9" d="M320.8,179.7c0,1-1.4,1.9-2.3,1.9h-60.6l-5.4,6.9l-5.9-6.9h-61.9c-1,0-2.2-1-2.2-1.9
		v-46.9c0-1,1.3-0.8,2.2-0.8h133.8c1,0,2.3-0.1,2.3,0.8V179.7L320.8,179.7z"/>
	
		<text transform="matrix(1 0 0 1 194.0644 153.6479)" display="inline" fill="#FFFFFF" font-family="'MyriadPro-Regular'" font-size="12.672">Plan your study better</text>
	
		<text transform="matrix(1 0 0 1 194.0644 168.8544)" display="inline" fill="#FFFFFF" font-family="'MyriadPro-Regular'" font-size="12.672">with our study planner</text>
</g>
<g>
	<g>
		<circle fill="#2EB9EB" cx="141.3" cy="19.5" r="18.5"/>
		<g>
			<path fill="#FFFFFF" d="M143.6,9.7c4.2,0,6.9,2.3,6.9,5.3c0,3.7-4.2,5.7-10.6,5.7h-2.5v0.2c0,3,1.4,4.2,3.8,4.2
				c1.7,0,3.5-0.7,5.1-1.6l1.9,3.4c-2.1,1.4-4.5,2.3-7.5,2.3c-5,0-8.3-3.2-8.3-8.2C132.2,14.7,137.1,9.7,143.6,9.7z M138,17.6h1.9
				c4.2,0,5.6-1.2,5.6-2.4c0-1-0.8-1.8-2.3-1.8C140.9,13.4,138.9,15.1,138,17.6z"/>
		</g>
	</g>
</g>
<g>
	<g>
		<circle fill="#2EB9EB" cx="213.2" cy="767.8" r="18.5"/>
		<g>
			<path fill="#FFFFFF" d="M215.4,758c4.2,0,6.9,2.3,6.9,5.3c0,3.7-4.2,5.7-10.6,5.7h-2.5v0.2c0,3,1.4,4.2,3.8,4.2
				c1.7,0,3.5-0.7,5.1-1.6l1.9,3.4c-2.1,1.4-4.5,2.3-7.5,2.3c-5,0-8.3-3.2-8.3-8.2C204,762.9,209,758,215.4,758z M209.8,765.9h1.9
				c4.2,0,5.6-1.2,5.6-2.4c0-1-0.8-1.8-2.3-1.8C212.8,761.7,210.7,763.3,209.8,765.9z"/>
		</g>
	</g>
</g>
<g>
	<g>
		<g>
			<g>
				<defs>
					<rect id="SVGID_55_" x="395.2" y="398.6" width="51" height="62.1"/>
				</defs>
				<clipPath id="SVGID_56_">
					<use xlink:href="#SVGID_55_"  overflow="visible"/>
				</clipPath>
				<path id="yellow" clip-path="url(#SVGID_56_)" fill="#FCB415" d="M410.4,438c1.8,1.2,2.6,3.2,2.6,5.5v4.2h14.2v-4.9h0.4
					c0,0,0,0.2,0,0.1c0.1-2.1,1.2-3.8,2.7-5c4.3-3.1,7.1-7.9,7.1-13.6c0-9.3-7.5-16.8-16.8-16.8s-17,7.5-17,16.8
					C403.7,430.1,406.3,435.1,410.4,438"/>
			</g>
		</g>
		<g>
			<g>
				<defs>
					<rect id="SVGID_57_" x="395.2" y="398.6" width="51" height="62.1"/>
				</defs>
				<clipPath id="SVGID_58_">
					<use xlink:href="#SVGID_57_"  overflow="visible"/>
				</clipPath>
				<path clip-path="url(#SVGID_58_)" fill="#FFFFFF" d="M425.1,433.3l-3.6,9.6c-0.2-0.1-0.5-0.1-0.7-0.1c-0.3,0-0.5,0-0.7,0.1
					l-3.6-9.6c-0.1-0.3,0-0.5,0.1-0.5c0.1-0.1,0.2-0.3,0.5-0.3h7.7c0.3,0,0.4,0.2,0.5,0.3C425.1,432.7,425.2,433,425.1,433.3
					 M426.5,431.3c-0.4-0.6-1.2-1.4-1.9-1.4h-7.7c-0.7,0-1.5,0.7-1.9,1.4c-0.4,0.6-0.5,1.7-0.3,2.3l3.7,9.8
					c-0.6,0.6-1.1,1.6-1.1,2.5c0,1.9,1.6,3.5,3.5,3.5s3.5-1.6,3.5-3.5c0-1-0.4-1.9-1.1-2.5l3.7-9.9C427,433,426.9,431.9,426.5,431.3
					"/>
			</g>
		</g>
		<g>
			<g>
				<defs>
					<rect id="SVGID_59_" x="395.2" y="398.6" width="51" height="62.1"/>
				</defs>
				<clipPath id="SVGID_60_">
					<use xlink:href="#SVGID_59_"  overflow="visible"/>
				</clipPath>
				<path clip-path="url(#SVGID_60_)" fill="#35B8EB" d="M413.1,444.7v9.6c0,1.6,2,3.9,3.6,3.9h0.3c0.6,0.6,2,2.5,3.7,2.5
					s3.1-1.9,3.7-2.5h0.3c1.6,0,2.5-2.3,2.5-3.9v-9.6H413.1z"/>
			</g>
		</g>
	</g>
	<g>
		<g>
			<g>
				<defs>
					<path id="SVGID_61_" d="M413.1,444.7v9.6c0,1.6,2,3.9,3.6,3.9h0.3c0.5,0.5,1.7,2.1,3.2,2.4h1.1c1.5-0.3,2.6-1.9,3.2-2.4h0.3
						c1.6,0,2.5-2.3,2.5-3.9v-9.6H413.1z"/>
				</defs>
				<clipPath id="SVGID_62_">
					<use xlink:href="#SVGID_61_"  overflow="visible"/>
				</clipPath>
				<path clip-path="url(#SVGID_62_)" fill="#1D6C8D" d="M422.9,443v9.8c0,2.4-1.8,6.8-5.8,6.8l1,3.4h18.3v-20.7L422.9,443z"/>
			</g>
		</g>
	</g>
	<g id="glow" display="none">
		<g display="inline">
			<g>
				<defs>
					<rect id="SVGID_63_" x="395.2" y="398.6" width="51" height="62.1"/>
				</defs>
				<clipPath id="SVGID_64_">
					<use xlink:href="#SVGID_63_"  overflow="visible"/>
				</clipPath>
				<path clip-path="url(#SVGID_64_)" fill="#FDEE1C" d="M422.8,401c0,1.3-1.1,2.3-2.3,2.3s-2.3-1.1-2.3-2.3c0-1.3,1.1-2.3,2.3-2.3
					S422.8,399.7,422.8,401"/>
			</g>
		</g>
		<g display="inline">
			<g>
				<defs>
					<rect id="SVGID_65_" x="395.2" y="398.6" width="51" height="62.1"/>
				</defs>
				<clipPath id="SVGID_66_">
					<use xlink:href="#SVGID_65_"  overflow="visible"/>
				</clipPath>
				<path clip-path="url(#SVGID_66_)" fill="#FDEE1C" d="M411.4,402.9c0.6,1.2,0.2,2.5-0.8,3.2c-1.2,0.6-2.5,0.2-3.2-0.8
					c-0.6-1.2-0.2-2.5,0.8-3.2C409.3,401.4,410.8,401.8,411.4,402.9"/>
			</g>
		</g>
		<g display="inline">
			<g>
				<defs>
					<rect id="SVGID_67_" x="395.2" y="398.6" width="51" height="62.1"/>
				</defs>
				<clipPath id="SVGID_68_">
					<use xlink:href="#SVGID_67_"  overflow="visible"/>
				</clipPath>
				<path clip-path="url(#SVGID_68_)" fill="#FDEE1C" d="M401.9,410c1.2,0.6,1.5,2.1,0.8,3.2c-0.6,1.2-2.1,1.5-3.2,0.8
					c-1.2-0.6-1.5-2.1-0.8-3.2C399.4,409.7,400.7,409.4,401.9,410"/>
			</g>
		</g>
		<g display="inline">
			<g>
				<defs>
					<rect id="SVGID_69_" x="395.2" y="398.6" width="51" height="62.1"/>
				</defs>
				<clipPath id="SVGID_70_">
					<use xlink:href="#SVGID_69_"  overflow="visible"/>
				</clipPath>
				<path clip-path="url(#SVGID_70_)" fill="#FDEE1C" d="M397.6,420.8c1.3,0,2.3,1.1,2.3,2.3s-1.1,2.3-2.3,2.3s-2.3-1.1-2.3-2.3
					C395.2,421.8,396.3,420.8,397.6,420.8"/>
			</g>
		</g>
		<g display="inline">
			<g>
				<defs>
					<rect id="SVGID_71_" x="395.2" y="398.6" width="51" height="62.1"/>
				</defs>
				<clipPath id="SVGID_72_">
					<use xlink:href="#SVGID_71_"  overflow="visible"/>
				</clipPath>
				<path clip-path="url(#SVGID_72_)" fill="#FDEE1C" d="M398.8,432.1c1.2-0.6,2.5-0.2,3.2,0.8c0.6,1.2,0.2,2.5-0.8,3.2
					c-1.2,0.6-2.5,0.2-3.2-0.8S397.8,432.9,398.8,432.1"/>
			</g>
		</g>
		<g display="inline">
			<g>
				<defs>
					<rect id="SVGID_73_" x="395.2" y="398.6" width="51" height="62.1"/>
				</defs>
				<clipPath id="SVGID_74_">
					<use xlink:href="#SVGID_73_"  overflow="visible"/>
				</clipPath>
				<path clip-path="url(#SVGID_74_)" fill="#FDEE1C" d="M430.1,402.9c-0.6,1.2-0.2,2.5,0.8,3.2c1.2,0.6,2.5,0.2,3.2-0.8
					c0.6-1.2,0.2-2.5-0.8-3.2C432.2,401.4,430.7,401.8,430.1,402.9"/>
			</g>
		</g>
		<g display="inline">
			<g>
				<defs>
					<rect id="SVGID_75_" x="395.2" y="398.6" width="51" height="62.1"/>
				</defs>
				<clipPath id="SVGID_76_">
					<use xlink:href="#SVGID_75_"  overflow="visible"/>
				</clipPath>
				<path clip-path="url(#SVGID_76_)" fill="#FDEE1C" d="M439.6,410c-1.2,0.6-1.5,2.1-0.8,3.2c0.6,1.2,2.1,1.5,3.2,0.8
					c1.2-0.6,1.5-2.1,0.8-3.2C442.1,409.7,440.7,409.4,439.6,410"/>
			</g>
		</g>
		<g display="inline">
			<g>
				<defs>
					<rect id="SVGID_77_" x="395.2" y="398.6" width="51" height="62.1"/>
				</defs>
				<clipPath id="SVGID_78_">
					<use xlink:href="#SVGID_77_"  overflow="visible"/>
				</clipPath>
				<path clip-path="url(#SVGID_78_)" fill="#FDEE1C" d="M443.9,420.8c-1.3,0-2.3,1.1-2.3,2.3s1.1,2.3,2.3,2.3s2.3-1.1,2.3-2.3
					C446.2,421.8,445.2,420.8,443.9,420.8"/>
			</g>
		</g>
		<g display="inline">
			<g>
				<defs>
					<rect id="SVGID_79_" x="395.2" y="398.6" width="51" height="62.1"/>
				</defs>
				<clipPath id="SVGID_80_">
					<use xlink:href="#SVGID_79_"  overflow="visible"/>
				</clipPath>
				<path clip-path="url(#SVGID_80_)" fill="#FDEE1C" d="M442.6,432.1c-1.2-0.6-2.5-0.2-3.2,0.8c-0.6,1.2-0.2,2.5,0.8,3.2
					c1.2,0.6,2.5,0.2,3.2-0.8S443.7,432.9,442.6,432.1"/>
			</g>
		</g>
	</g>
</g>
<path id="tooltip_x5F_2" display="none" fill="#25B5E9" d="M552.5,245c0,1.3-0.5,2.1-1.7,2.1h-73l-6.5,8.7l-7.2-8.7h-76.2
	c-0.1,0-0.3-0.1-0.3-0.3v-63.5c0-0.3,0.2-0.4,0.4-0.4h164.6L552.5,245L552.5,245z"/>
<text transform="matrix(1 0 0 1 405.0001 200.7208)"><tspan x="0" y="0" fill="#FFFFFF" font-family="'MyriadPro-Regular'" font-size="12.8603">  Practice with your time</tspan><tspan x="0" y="15.4" fill="#FFFFFF" font-family="'MyriadPro-Regular'" font-size="12.8603">  management to do </tspan><tspan x="0" y="30.9" fill="#FFFFFF" font-family="'MyriadPro-Regular'" font-size="12.8603">         better in tests.</tspan></text>
<g id="tooltip_x5F_4" display="none">
	<path display="inline" fill="#2AB5E9" d="M334,319.5c0,0.6-0.2,1-1,1h-54.3l-4.9,4.2l-5.3-4.2h-55.4c-0.8,0-1.5-0.4-1.5-1v-29.1
		c0-0.6,0.7-1.1,1.5-1.1H333c0.8,0,1,0.6,1,1.1v29.1H334z"/>
	
		<text transform="matrix(0.8937 0 0 1 220.4144 308.6257)" display="inline" fill="#FFFFFF" font-family="'MyriadPro-Regular'" font-size="13.5825">Practice at your level.</text>
</g>
<path id="tooltip_x5F_3" display="none" fill="#25B5E9" d="M487.9,391.5c0,1-0.4,1.6-1.4,1.6h-62l-5.5,6.8l-6.1-6.8h-64.7
	c-0.1,0-0.3-0.1-0.3-0.2v-49.6c0-0.2,0.2-0.3,0.3-0.3H488L487.9,391.5L487.9,391.5z"/>
<text transform="matrix(0.6809 0 0 1 355.2656 362.2051)"><tspan x="0" y="0" fill="#FFFFFF" font-family="'MyriadPro-Regular'" font-size="17.0239">Never get stuck with </tspan><tspan x="0" y="20.4" fill="#FFFFFF" font-family="'MyriadPro-Regular'" font-size="17.0239">hints  and video solutions.</tspan></text>
</svg>
