<?xml version="1.0" encoding="utf-8"?>
<!-- Generator: Adobe Illustrator 18.0.0, SVG Export Plug-In . SVG Version: 6.00 Build 0)  -->
<!DOCTYPE svg PUBLIC "-//W3C//DTD SVG 1.1//EN" "http://www.w3.org/Graphics/SVG/1.1/DTD/svg11.dtd">
<svg version="1.1" id="Layer_1" xmlns="http://www.w3.org/2000/svg" xmlns:xlink="http://www.w3.org/1999/xlink" x="0px" y="0px"
	 viewBox="0 0 612 792" enable-background="new 0 0 612 792" xml:space="preserve">
<path fill="none" stroke="#CCCCCC" stroke-width="3" stroke-miterlimit="10" d="M292.7,14.4v186.1c0,3.8,1.2,7.5,3.3,10.7l0,0
	c3.4,5.1,9.4,8.2,15.6,8.2h32.1c4.8,0,9.1,2,12.4,5.4l0,0c3,3.2,4.5,7.3,4.5,11.6v75.9c0,5.5,2.1,11,5.9,14.9l0,0
	c4.1,4.4,9.8,6.7,15.7,6.7h59.4c6.5,0,12.5,3,16.5,8.2l0,0c2.9,3.7,4.4,8.2,4.4,12.8v40.4c0,3.4-1.2,6.7-3.2,9.5l0,0
	c-3,3.8-7.5,6.1-12.4,6.1H306v-44.7c0,0-15.4-50.7-36.7-10.3c0,0,4.1,18.5,9-0.7c0,0-15.2-38.4-32.2,2.8c0,0,7.7,15,8.2,0
	c0,0-15.7-43.2-30.9,2.1c0,0,3.4,10.3,8.2-1.3c0,0-13.7-44-31.5,0c0,0,2.8,13.7,8.2,0c0,0-15.2-42.5-31.5,0.7c0,0,5.4,9,9.5,0
	c0,0-13.1-44.5-36.7,2.8v104.4c0,6.1,2.4,11.9,6.6,16.1l0,0c4.4,4.5,10.3,7,16.5,7h8.3c4.5,0,8.8,2.1,11.5,5.9l0,0
	c1.7,2.4,2.6,5.3,2.6,8.2v16c0,5.4,2.1,10.4,6.1,14.1l0,0c3.6,3.4,8.3,5.3,13.3,5.3h202.2c6.1,0,12,2.2,16.5,6.3l0,0
	c5.1,4.6,8.1,11.4,8.1,18.2V631c0,4.9-1.8,9.6-5.3,13.3l0,0c-3.6,4-8.7,6.1-14.1,6.1h-77.2c-6.9,0-13.3,3.4-17.2,9.1l0,0
	c-2.2,3.4-3.4,7.4-3.4,11.4v106.8"/>
<path id="fillpath" fill="none" stroke="#2DB8EB" stroke-width="3" stroke-miterlimit="10" d="M292.7,14.4v186.1
	c0,3.8,1.2,7.5,3.3,10.7l0,0c3.4,5.1,9.4,8.2,15.6,8.2h32.1c4.8,0,9.1,2,12.4,5.4l0,0c3,3.2,4.5,7.3,4.5,11.6v75.9
	c0,5.5,2.1,11,5.9,14.9l0,0c4.1,4.4,9.8,6.7,15.7,6.7h59.4c6.5,0,12.5,3,16.5,8.2l0,0c2.9,3.7,4.4,8.2,4.4,12.8v40.4
	c0,3.4-1.2,6.7-3.2,9.5l0,0c-3,3.8-7.5,6.1-12.4,6.1H306v-44.7c0,0-15.4-50.7-36.7-10.3c0,0,4.1,18.5,9-0.7c0,0-15.2-38.4-32.2,2.8
	c0,0,7.7,15,8.2,0c0,0-15.7-43.2-30.9,2.1c0,0,3.4,10.3,8.2-1.3c0,0-13.7-44-31.5,0c0,0,2.8,13.7,8.2,0c0,0-15.2-42.5-31.5,0.7
	c0,0,5.4,9,9.5,0c0,0-13.1-44.5-36.7,2.8v104.4c0,6.1,2.4,11.9,6.6,16.1l0,0c4.4,4.5,10.3,7,16.5,7h8.3c4.5,0,8.8,2.1,11.5,5.9l0,0
	c1.7,2.4,2.6,5.3,2.6,8.2v16c0,5.4,2.1,10.4,6.1,14.1l0,0c3.6,3.4,8.3,5.3,13.3,5.3h202.2c6.1,0,12,2.2,16.5,6.3l0,0
	c5.1,4.6,8.1,11.4,8.1,18.2V631c0,4.9-1.8,9.6-5.3,13.3l0,0c-3.6,4-8.7,6.1-14.1,6.1h-77.2c-6.9,0-13.3,3.4-17.2,9.1l0,0
	c-2.2,3.4-3.4,7.4-3.4,11.4v106.8"/>
<g>
	<rect x="236.6" y="183.3" fill="none" width="85" height="79.9"/>
	<path fill="#FEE7AD" d="M272.9,222.7c0,1.1-0.8,2-2,2H239c-1.1,0-2-0.8-2-2v-30.2c0-1.1,0.8-2,2-2h31.9c1.1,0,2,0.8,2,2V222.7z"/>
	<rect x="236.6" y="183.3" fill="none" width="85" height="79.9"/>
	<path fill="#C3E3CB" d="M313.5,222.7c0,1.1-0.8,2-2,2h-31.9c-1.1,0-2-0.8-2-2v-30.2c0-1.1,0.8-2,2-2h31.9c1.1,0,2,0.8,2,2V222.7z"
		/>
	<rect x="236.6" y="183.3" fill="none" width="85" height="79.9"/>
	<path fill="#C5E9F4" d="M272.9,261.1c0,1.1-0.8,2-2,2H239c-1.1,0-2-0.8-2-2v-30.2c0-1.1,0.8-2,2-2h31.9c1.1,0,2,0.8,2,2V261.1z"/>
	<rect x="236.6" y="183.3" fill="none" width="85" height="79.9"/>
	<path fill="#FABFB9" d="M313.5,261.1c0,1.1-0.8,2-2,2h-31.9c-1.1,0-2-0.8-2-2v-30.2c0-1.1,0.8-2,2-2h31.9c1.1,0,2,0.8,2,2V261.1z"
		/>
	<rect x="236.6" y="183.3" fill="none" width="85" height="79.9"/>
	<path fill="none" stroke="#F8961D" stroke-miterlimit="10" d="M272.9,217.5h-35.8 M272.9,210.8h-35.8 M272.9,203.8h-35.8
		 M272.9,196.8h-35.8"/>
</g>
<path fill="none" stroke="#50B966" stroke-miterlimit="10" d="M313.4,217.5h-35.9 M313.4,210.8h-35.9 M313.4,203.8h-35.9
	 M313.4,196.8h-35.9"/>
<g>
	<rect x="236.6" y="183.3" fill="none" width="85" height="79.9"/>
	<path fill="none" stroke="#26ADDF" stroke-miterlimit="10" d="M272.9,256.6h-35.8 M272.9,250h-35.8 M272.9,243h-35.8 M272.9,235.9
		h-35.8"/>
</g>
<path fill="none" stroke="#E85F54" stroke-miterlimit="10" d="M313.4,256.6h-35.9 M313.4,250h-35.9 M313.4,243h-35.9 M313.4,235.9
	h-35.9"/>
<g id="points">
	<g id="lines">
		<g>
			<g>
				<defs>
					<rect id="SVGID_1_" x="236.6" y="183.3" width="85" height="79.9"/>
				</defs>
				<clipPath id="SVGID_2_">
					<use xlink:href="#SVGID_1_"  overflow="visible"/>
				</clipPath>
				
					<polyline clip-path="url(#SVGID_2_)" fill="none" stroke="#4E4E50" stroke-width="4" stroke-linecap="round" stroke-linejoin="round" stroke-miterlimit="10" points="
					318.3,224.3 320.8,226.9 318.3,229.4 				"/>
			</g>
			<g>
				<defs>
					<rect id="SVGID_3_" x="236.6" y="183.3" width="85" height="79.9"/>
				</defs>
				<clipPath id="SVGID_4_">
					<use xlink:href="#SVGID_3_"  overflow="visible"/>
				</clipPath>
				
					<line clip-path="url(#SVGID_4_)" fill="none" stroke="#4E4E50" stroke-width="4" stroke-linejoin="round" stroke-miterlimit="10" x1="319.7" y1="226.8" x2="236.6" y2="226.8"/>
			</g>
		</g>
		<g>
			<g>
				<g>
					<defs>
						<rect id="SVGID_5_" x="236.6" y="183.3" width="85" height="79.9"/>
					</defs>
					<clipPath id="SVGID_6_">
						<use xlink:href="#SVGID_5_"  overflow="visible"/>
					</clipPath>
					
						<polyline clip-path="url(#SVGID_6_)" fill="none" stroke="#4E4E50" stroke-width="4" stroke-linecap="round" stroke-linejoin="round" stroke-miterlimit="10" points="
						272.7,186.6 275.4,184.1 277.9,186.6 					"/>
				</g>
			</g>
			<g>
				<g>
					<g>
						<defs>
							<rect id="SVGID_7_" x="236.6" y="183.3" width="85" height="79.9"/>
						</defs>
						<clipPath id="SVGID_8_">
							<use xlink:href="#SVGID_7_"  overflow="visible"/>
						</clipPath>
						
							<line clip-path="url(#SVGID_8_)" fill="none" stroke="#4E4E50" stroke-width="4" stroke-linejoin="round" stroke-miterlimit="10" x1="275.5" y1="183.9" x2="275.5" y2="262.5"/>
					</g>
				</g>
			</g>
		</g>
	</g>
	<g>
		<g>
			<g>
				<defs>
					<rect id="SVGID_9_" x="236.6" y="183.3" width="85" height="79.9"/>
				</defs>
				<clipPath id="SVGID_10_">
					<use xlink:href="#SVGID_9_"  overflow="visible"/>
				</clipPath>
				<path clip-path="url(#SVGID_10_)" fill="#26ADDF" d="M265.2,253c0,2.1-1.6,3.8-3.8,3.8c-2.1,0-3.8-1.6-3.8-3.8s1.6-3.8,3.8-3.8
					C263.6,249.3,265.2,250.9,265.2,253"/>
			</g>
		</g>
	</g>
	<g>
		<g>
			<g>
				<defs>
					<rect id="SVGID_11_" x="236.6" y="183.3" width="85" height="79.9"/>
				</defs>
				<clipPath id="SVGID_12_">
					<use xlink:href="#SVGID_11_"  overflow="visible"/>
				</clipPath>
				
					<circle clip-path="url(#SVGID_12_)" fill="none" stroke="#FFFFFF" stroke-width="2" stroke-miterlimit="10" cx="261.5" cy="253" r="3.8"/>
			</g>
		</g>
	</g>
	<g>
		<g>
			<g>
				<defs>
					<rect id="SVGID_13_" x="236.6" y="183.3" width="85" height="79.9"/>
				</defs>
				<clipPath id="SVGID_14_">
					<use xlink:href="#SVGID_13_"  overflow="visible"/>
				</clipPath>
				<path clip-path="url(#SVGID_14_)" fill="#E85F54" d="M303.4,239.7c0,2.1-1.6,3.8-3.8,3.8c-2.1,0-3.8-1.6-3.8-3.8
					c0-2.1,1.6-3.8,3.8-3.8C301.5,236,303.4,237.7,303.4,239.7"/>
			</g>
		</g>
	</g>
	<g>
		<g>
			<g>
				<defs>
					<rect id="SVGID_15_" x="236.6" y="183.3" width="85" height="79.9"/>
				</defs>
				<clipPath id="SVGID_16_">
					<use xlink:href="#SVGID_15_"  overflow="visible"/>
				</clipPath>
				
					<circle clip-path="url(#SVGID_16_)" fill="none" stroke="#FFFFFF" stroke-width="2" stroke-miterlimit="10" cx="299.5" cy="239.7" r="3.8"/>
			</g>
		</g>
	</g>
	<g>
		<g>
			<g>
				<defs>
					<rect id="SVGID_17_" x="236.6" y="183.3" width="85" height="79.9"/>
				</defs>
				<clipPath id="SVGID_18_">
					<use xlink:href="#SVGID_17_"  overflow="visible"/>
				</clipPath>
				<path clip-path="url(#SVGID_18_)" fill="#50B966" d="M303,208.7c0,2.1-1.6,3.8-3.8,3.8c-2.1,0-3.8-1.6-3.8-3.8
					c0-2.1,1.6-3.8,3.8-3.8S303,206.6,303,208.7"/>
			</g>
		</g>
	</g>
	<g>
		<g>
			<g>
				<defs>
					<rect id="SVGID_19_" x="236.6" y="183.3" width="85" height="79.9"/>
				</defs>
				<clipPath id="SVGID_20_">
					<use xlink:href="#SVGID_19_"  overflow="visible"/>
				</clipPath>
				
					<circle clip-path="url(#SVGID_20_)" fill="none" stroke="#FFFFFF" stroke-width="2" stroke-miterlimit="10" cx="299.3" cy="208.7" r="3.8"/>
			</g>
		</g>
	</g>
	<g>
		<g>
			<g>
				<defs>
					<rect id="SVGID_21_" x="236.6" y="183.3" width="85" height="79.9"/>
				</defs>
				<clipPath id="SVGID_22_">
					<use xlink:href="#SVGID_21_"  overflow="visible"/>
				</clipPath>
				<path clip-path="url(#SVGID_22_)" fill="#F8961D" d="M262.3,204.6c0,2.1-1.6,3.8-3.8,3.8c-2.1,0-3.8-1.6-3.8-3.8
					c0-2.1,1.6-3.8,3.8-3.8C260.6,200.8,262.3,202.5,262.3,204.6"/>
			</g>
		</g>
	</g>
	<g>
		<g>
			<g>
				<defs>
					<rect id="SVGID_23_" x="236.6" y="183.3" width="85" height="79.9"/>
				</defs>
				<clipPath id="SVGID_24_">
					<use xlink:href="#SVGID_23_"  overflow="visible"/>
				</clipPath>
				
					<circle clip-path="url(#SVGID_24_)" fill="none" stroke="#FFFFFF" stroke-width="2" stroke-miterlimit="10" cx="258.5" cy="204.6" r="3.8"/>
			</g>
		</g>
	</g>
	<g>
		<g>
			<g>
				<defs>
					<rect id="SVGID_25_" x="236.6" y="183.3" width="85" height="79.9"/>
				</defs>
				<clipPath id="SVGID_26_">
					<use xlink:href="#SVGID_25_"  overflow="visible"/>
				</clipPath>
				<path clip-path="url(#SVGID_26_)" fill="#26ADDF" d="M249.9,239.8c0,2.1-1.6,3.8-3.8,3.8c-2.1,0-3.8-1.6-3.8-3.8
					s1.6-3.8,3.8-3.8C248.2,236,249.9,237.9,249.9,239.8"/>
			</g>
		</g>
	</g>
	<g>
		<g>
			<g>
				<defs>
					<rect id="SVGID_27_" x="236.6" y="183.3" width="85" height="79.9"/>
				</defs>
				<clipPath id="SVGID_28_">
					<use xlink:href="#SVGID_27_"  overflow="visible"/>
				</clipPath>
				
					<circle clip-path="url(#SVGID_28_)" fill="none" stroke="#FFFFFF" stroke-width="2" stroke-miterlimit="10" cx="246.1" cy="239.8" r="3.8"/>
			</g>
		</g>
	</g>
</g>
<path fill="none" d="M489.7,25.9"/>
<path fill="none" d="M-160.6,156.7"/>
<path fill="none" d="M489.7,25.9"/>
<path fill="none" d="M-160.6,156.7"/>
<path fill="none" d="M489.7,25.9"/>
<path fill="none" d="M-160.6,156.7"/>
<path fill="none" d="M489.7,25.9"/>
<path fill="none" d="M-160.6,156.7"/>
<path fill="none" d="M489.7,25.9"/>
<path fill="none" d="M-160.6,156.7"/>
<path fill="none" d="M489.7,25.9"/>
<path fill="none" d="M-160.6,156.7"/>
<path fill="none" d="M489.7,25.9"/>
<path fill="none" d="M-160.6,156.7"/>
<path fill="none" d="M489.7,25.9"/>
<path fill="none" d="M-160.6,156.7"/>
<path fill="none" d="M489.7,25.9"/>
<path fill="none" d="M-160.6,156.7"/>
<g id="cam">
	<path fill="#26ADDF" d="M403.5,347.3c-1.2,0-2.1-0.9-2.1-2.1v-38c0-1.2,0.9-2.1,2.1-2.1h57c1.2,0,2.1,0.9,2.1,2.1v38
		c0,1.2-0.9,2.1-2.1,2.1H403.5z"/>
	<path fill="#1D6C8D" d="M460.6,303.5h-57c-2.1,0-3.7,1.6-3.7,3.7v38c0,2.1,1.6,3.7,3.7,3.7h57c2.1,0,3.7-1.6,3.7-3.7v-38
		C464.3,305.2,462.7,303.5,460.6,303.5 M460.6,306.8c0.3,0,0.5,0.3,0.5,0.5v38c0,0.3-0.3,0.5-0.5,0.5h-57c-0.3,0-0.5-0.3-0.5-0.5
		v-38c0-0.3,0.3-0.5,0.5-0.5H460.6L460.6,306.8z"/>
	<g id="upper-clip">
		<path fill="#FFC74C" d="M397.5,300.4v-6.7c0-1.6,1.3-2.9,2.9-2.9h64.4c1.6,0,3,1.3,3,3v3.8c0,1.6-1.3,2.9-2.9,2.9h-67.5v-0.1
			H397.5z"/>
		<polygon fill="#4E4E50" points="455.4,300.3 445.8,290.7 456.1,290.7 465.6,300.3 		"/>
		<polygon fill="#4E4E50" points="435.2,300.3 425.6,290.7 435.8,290.7 445.4,300.3 		"/>
		<polygon fill="#4E4E50" points="415.3,300.4 405.7,290.7 415.8,290.7 425.5,300.3 		"/>
	</g>
	<path fill="#4E4E50" d="M397.5,300.4v-6.7c0-0.8,0.4-1.6,0.9-2.1l8.8,8.8L397.5,300.4L397.5,300.4z"/>
	<path fill="#1D6C8D" d="M429.3,320.2l11.4,6.7c0.7,0.4,0.7,1.5-0.1,1.8l-11.4,6.7c-0.7,0.4-1.5-0.1-1.5-0.9v-13.3
		C427.8,320.2,428.6,319.8,429.3,320.2"/>
	<polygon fill="#4E4E50" points="455.6,300.3 445.9,310.1 456.1,310.1 465.7,300.3 	"/>
	<polygon fill="#4E4E50" points="435.2,300.3 425.6,310.1 435.9,310.1 445.5,300.3 	"/>
	<g>
		<rect x="392.6" y="297.9" fill="none" width="77.6" height="4.9"/>
	</g>
	<path fill="#F8961D" d="M397.5,300.4v6.7c0,1.6,1.3,2.9,2.9,2.9h64.4c1.6,0,3-1.3,3-3v-3.8c0-1.6-1.3-2.9-2.9-2.9h-67.5v0.1H397.5z
		"/>
	<polygon fill="#4E4E50" points="415.3,300.3 405.8,310.1 416,310.1 425.5,300.3 	"/>
	<path fill="#4E4E50" d="M397.3,300.3v6.9c0,0.8,0.5,1.5,1.1,2l8.8-8.8h-9.9V300.3z"/>
	<polygon fill="#273036" points="455.6,300.3 453,302.8 463.2,302.8 465.7,300.3 	"/>
	<polygon fill="#273036" points="435.2,300.3 432.9,302.8 443,302.8 445.5,300.3 	"/>
	<g>
		<rect x="392.6" y="297.9" fill="none" width="77.6" height="4.9"/>
		<path fill="#273036" d="M397.3,300.3v6.9c0,0.8,0.5,1.5,1.1,2l8.8-8.8h-9.9V300.3z"/>
	</g>
	<path fill="#E85F54" d="M399.3,309.9l8.3-8.4c0.7-0.7,0.7-2,0-2.6l-8.3-8.4c-1.2-1.2-3.3-0.4-3.3,1.3v16.9
		C396,310.3,398,311.1,399.3,309.9"/>
	<path fill="#FFFFFF" d="M403.2,299.8c0,1.1-0.8,1.8-1.8,1.8c-1.1,0-1.8-0.8-1.8-1.8c0-1.1,0.8-1.8,1.8-1.8
		C402.4,297.9,403.2,298.8,403.2,299.8"/>
	<path fill="#FFFFFF" d="M428,319.3l11.5,6.7c0.7,0.4,0.7,1.5,0,1.8l-11.6,6.7c-0.7,0.4-1.6-0.1-1.6-0.9v-13.3
		C426.4,319.3,427.3,318.9,428,319.3"/>
	<g id="rays" display="none">
		
			<line display="inline" fill="none" stroke="#1D6C8D" stroke-width="4" stroke-linecap="round" stroke-linejoin="round" stroke-miterlimit="10" x1="472.3" y1="284.9" x2="476.8" y2="278.9"/>
		
			<line display="inline" fill="none" stroke="#1D6C8D" stroke-width="4" stroke-linecap="round" stroke-linejoin="round" stroke-miterlimit="10" x1="474.7" y1="288.2" x2="481" y2="284.5"/>
		
			<line display="inline" fill="none" stroke="#1D6C8D" stroke-width="4" stroke-linecap="round" stroke-linejoin="round" stroke-miterlimit="10" x1="475.8" y1="291.6" x2="483.1" y2="291.3"/>
		
			<line display="inline" fill="none" stroke="#1D6C8D" stroke-width="4" stroke-linecap="round" stroke-linejoin="round" stroke-miterlimit="10" x1="475.4" y1="295.3" x2="482" y2="298.5"/>
	</g>
</g>
<g>
	<path fill="#29B463" d="M246.1,378.4v26.7c0,1.6-1.3,2.9-2.9,2.9h-25.6c-1.6,0-2.9-1.3-2.9-2.9v-26.7c0-1.6,1.3-2.9,2.9-2.9h25.7
		C244.8,375.5,246.1,376.7,246.1,378.4z"/>
	<g>
		<path fill="#FFFFFF" d="M221.1,400.4l0.8-1.8c0.4,0.3,0.7,0.3,1.1,0.3c0.7,0,1.2-0.4,1.2-1.2l1.6-8.1h-1.5l0.4-2h1.5l0.1-0.5
			c0.3-1.2,0.7-2,1.3-2.5c0.7-0.5,1.5-0.8,2.5-0.8c0.7,0,1.2,0.1,1.6,0.4l-0.8,1.8c-0.4-0.3-0.7-0.3-1.1-0.3c-0.7,0-1.2,0.4-1.2,1.2
			l-0.1,0.7h2l-0.4,2h-2l-1.6,7.9c-0.3,1.2-0.7,2-1.3,2.5c-0.7,0.5-1.5,0.8-2.5,0.8C222,400.6,221.4,400.5,221.1,400.4z"/>
		<path fill="#FFFFFF" d="M231.4,396.8l3-4.9l-2.6-4.4h2.4l1.6,2.4l1.6-2.4h2.4l-2.6,4.4l3,4.9h-2.4l-1.8-3l-1.8,3H231.4z"/>
	</g>
	<path fill="#1B6C8D" d="M321.7,379v26.7c0,1.6-1.3,2.9-2.9,2.9h-25.6c-1.6,0-2.9-1.3-2.9-2.9V379c0-1.6,1.3-2.9,2.9-2.9h25.6
		C320.4,376.1,321.7,377.4,321.7,379z"/>
	<g>
		<path fill="#FFFFFF" d="M302,383.2c1.1-0.7,2.2-1.1,3.8-1.1c2,0,3.6,0.5,4.9,1.5c1.3,0.9,2,2.4,2,4.2c0,1.2-0.3,2.1-0.8,2.9
			c-0.3,0.5-0.9,1.1-2,1.8l-0.9,0.7c-0.5,0.4-0.8,0.8-1.1,1.3c-0.1,0.3-0.3,0.8-0.3,1.6H304c0.1-1.5,0.3-2.5,0.4-3
			c0.3-0.5,0.8-1.2,1.7-2l0.9-0.7c0.3-0.3,0.7-0.5,0.7-0.8c0.3-0.5,0.5-1.1,0.5-1.6c0-0.7-0.3-1.2-0.7-1.8c-0.4-0.5-1.2-0.8-2.1-0.8
			s-1.7,0.3-2.1,1.1c-0.4,0.7-0.7,1.3-0.7,2.1H299C299.4,386,300.3,384.3,302,383.2z M304.2,398h4v3.8h-4V398z"/>
	</g>
	<g>
		<path fill="#E96155" d="M165.4,378.8v26.7c0,1.6-1.3,2.9-2.9,2.9h-25.7c-1.6,0-2.9-1.3-2.9-2.9v-26.7c0-1.6,1.3-2.9,2.9-2.9h25.6
			C164.1,375.9,165.4,377.3,165.4,378.8z"/>
	</g>
	<path fill="#FFFFFF" d="M158.6,390.6h-1.1c-0.3,0-0.3-0.1-0.4-0.3c-0.3-0.7-0.4-1.2-0.7-1.8c-0.1-0.3-0.1-0.3,0-0.5l0.7-0.8
		c0.1-0.3,0.1-0.4,0-0.7l-1.8-1.7c-0.3-0.1-0.4-0.1-0.7,0l-0.7,0.7c-0.1,0.1-0.3,0.3-0.5,0.1c-0.5-0.3-1.2-0.5-1.7-0.7
		c-0.3,0-0.3-0.3-0.3-0.4v-1.1c0-0.3-0.3-0.4-0.4-0.4h-2.4c-0.3,0-0.4,0.3-0.4,0.4v1.1c0,0.3-0.1,0.3-0.3,0.4
		c-0.7,0.3-1.2,0.4-1.7,0.7c-0.3,0.1-0.4,0.1-0.5-0.1l-0.7-0.7c-0.3-0.3-0.4-0.3-0.7,0l-1.7,1.7c-0.3,0.3-0.3,0.4,0,0.7l0.7,0.7
		c0.1,0.1,0.1,0.3,0.1,0.5c-0.3,0.5-0.7,1.2-0.7,1.7c0,0.3-0.3,0.3-0.4,0.3h-1.1c-0.3,0-0.4,0.3-0.4,0.4v2.5c0,0.3,0.3,0.4,0.4,0.4
		h1.1c0.3,0,0.3,0.1,0.4,0.3c0.3,0.7,0.4,1.2,0.7,1.7c0.1,0.3,0.1,0.4-0.1,0.5l-0.7,0.7c-0.3,0.3-0.3,0.4,0,0.7l1.7,1.7
		c0.3,0.3,0.4,0.3,0.7,0l0.7-0.7c0.1-0.1,0.3-0.1,0.5-0.1c0.5,0.3,1.2,0.7,1.7,0.7c0.3,0,0.3,0.3,0.3,0.4v1.1c0,0.3,0.3,0.4,0.4,0.4
		h2.5c0.3,0,0.4-0.3,0.4-0.4v-1.1c0-0.3,0.1-0.3,0.3-0.4c0.7-0.3,1.2-0.4,1.7-0.7c0.3-0.1,0.4-0.1,0.5,0.1l0.7,0.7
		c0.3,0.3,0.4,0.3,0.7,0l1.7-1.7c0.3-0.3,0.3-0.4,0-0.7l-0.7-0.7c-0.1-0.1-0.1-0.3-0.1-0.5c0.3-0.5,0.7-1.2,0.7-1.7
		c0-0.3,0.3-0.3,0.4-0.3h1.1c0.3,0,0.4-0.3,0.4-0.4v-2.5C159,390.9,158.8,390.6,158.6,390.6z M149.8,396.3c-2.2,0-4-1.8-4-4
		c0-2.1,1.8-4,4-4c2.1,0,4,1.8,4,4C153.9,394.4,152.1,396.3,149.8,396.3z"/>
</g>
<g>
	<g>
		<polyline fill="none" points="421.6,493.8 421.6,592.3 290.3,592.3 290.3,493.8 		"/>
		<polyline fill="none" points="421.6,493.8 421.6,592.3 290.3,592.3 290.3,493.8 		"/>
		<path fill="#196C95" d="M296.9,547.4h46.9c4.9,0,8.8,4,8.8,8.8v1.2c0,4.9-4,8.8-8.8,8.8h-46.9V547.4z"/>
		<polyline fill="none" points="421.6,493.8 421.6,592.3 290.3,592.3 290.3,493.8 		"/>
		<path fill="#E5E8E7" d="M296.9,549.5h47c3.6,0,6.6,3,6.6,6.6v1.6c0,3.6-3,6.6-6.6,6.6h-47V549.5z"/>
	</g>
	<path fill="none" stroke="#FFFFFF" stroke-width="2" stroke-miterlimit="10" d="M345.9,551.4H297 M347.7,553.5h-51 M348.8,555.7
		h-51.9 M348.8,557.8h-52 M347.8,560.1h-51 M345.9,562.2h-49.1"/>
	<g>
		<polyline fill="none" points="421.6,493.8 421.6,592.3 290.3,592.3 290.3,493.8 		"/>
		<path fill="#E85F54" d="M345.9,589.5H299c-4.9,0-8.8-4-8.8-8.8v-1.2c0-4.9,4-8.8,8.8-8.8h46.9V589.5z"/>
		<polyline fill="none" points="421.6,493.8 421.6,592.3 290.3,592.3 290.3,493.8 		"/>
		<path fill="#E5E8E7" d="M345.9,587.5h-47.1c-3.6,0-6.6-3-6.6-6.6v-1.6c0-3.6,3-6.6,6.6-6.6h47L345.9,587.5L345.9,587.5z"/>
	</g>
	<path fill="none" stroke="#FFFFFF" stroke-width="2" stroke-miterlimit="10" d="M297,585.7h48.8 M295,583.4h51 M294.1,581.2H346
		 M294,579.1h52 M294.9,577h51 M296.9,574.7H346"/>
	<g>
		<polyline fill="none" points="421.6,493.8 421.6,592.3 290.3,592.3 290.3,493.8 		"/>
		<path fill="#714FA0" d="M421.6,592.3h-52.9c-5.5,0-10-4.5-10-10V581c0-5.5,4.5-10,10-10h52.9V592.3z"/>
		<polyline fill="none" points="421.6,493.8 421.6,592.3 290.3,592.3 290.3,493.8 		"/>
		<path fill="#714FA0" d="M421.6,580c0,0-63.1,6.5-63.1,1.1v-60.9c0-5.5,4.5-10,10-10h52.9L421.6,580L421.6,580z"/>
		<polyline fill="none" points="421.6,493.8 421.6,592.3 290.3,592.3 290.3,493.8 		"/>
		<path fill="#E5E8E7" d="M421.6,590h-52.9c-4.4,0-7.8-3.4-7.8-7.8V581c0-4.4,3.4-7.8,7.8-7.8h52.9V590z"/>
		<polyline fill="none" points="421.6,493.8 421.6,592.3 290.3,592.3 290.3,493.8 		"/>
		<path fill="none" stroke="#FFFFFF" stroke-width="2" stroke-miterlimit="10" d="M406.5,534.9c-2-3.3-9.6-2.5-17.3,2
			s-12.3,10.7-10.4,14c2,3.3,9.6,2.5,17.3-2S408.4,538.2,406.5,534.9z M406.5,550.8c2-3.3-2.6-9.5-10.4-14c-7.7-4.5-15.3-5.3-17.3-2
			s2.6,9.5,10.4,14C396.9,553.2,404.6,554.1,406.5,550.8z M392.7,558.8c3.8,0,6.9-7.1,6.9-16c0-8.8-3-16-6.9-16
			c-3.8,0-6.9,7.1-6.9,16C385.9,551.6,388.9,558.8,392.7,558.8z M366.3,587.8h55.3 M363.9,585.4h57.7 M362.9,582.9h58.7
			 M362.8,580.4h58.9 M363.9,577.9h57.8 M366.1,575.5h55.6"/>
		<polyline fill="none" points="421.6,493.8 421.6,592.3 290.3,592.3 290.3,493.8 		"/>
		<path fill="#FFFFFF" d="M392.7,545.8c1.7,0,3-1.5,3-3c0-1.7-1.5-3-3-3c-1.6,0-3,1.5-3,3C389.7,544.5,391,545.8,392.7,545.8"/>
		<polyline fill="none" points="421.6,493.8 421.6,592.3 290.3,592.3 290.3,493.8 		"/>
		<path fill="#FDB515" d="M397.2,528c0,1.2-0.9,2-2,2s-2-0.9-2-2s0.9-2,2-2S397.2,526.8,397.2,528"/>
		<polyline fill="none" points="421.6,493.8 421.6,592.3 290.3,592.3 290.3,493.8 		"/>
		<path fill="#FDB515" d="M384,552.8c0,1.2-0.9,2-2,2c-1.2,0-2-0.9-2-2s0.9-2,2-2S384,551.6,384,552.8"/>
		<polyline fill="none" points="421.6,493.8 421.6,592.3 290.3,592.3 290.3,493.8 		"/>
		<path fill="#FDB515" d="M408.2,539.2c0,1.2-0.9,2-2,2c-1.2,0-2-0.9-2-2s0.9-2,2-2C407.2,537.4,408.2,538.2,408.2,539.2"/>
		<polyline fill="none" points="421.6,493.8 421.6,592.3 290.3,592.3 290.3,493.8 		"/>
		<polyline fill="none" points="421.6,493.8 421.6,592.3 290.3,592.3 290.3,493.8 		"/>
		<polyline fill="none" points="421.6,493.8 421.6,592.3 290.3,592.3 290.3,493.8 		"/>
		<polyline fill="none" points="421.6,493.8 421.6,592.3 290.3,592.3 290.3,493.8 		"/>
		<path fill="#FFFFFF" d="M345.3,511.8c0,1.2-0.9,2-2,2c-1.2,0-2-0.9-2-2c0-1.2,0.9-2,2-2S345.3,510.7,345.3,511.8"/>
	</g>
</g>
<circle id="bite" display="none" fill="#FFFFFF" stroke="#FFFFFF" stroke-width="2" stroke-miterlimit="10" cx="319.9" cy="523" r="8.6"/>
<g>
	<g>
		<circle fill="#33BAEC" cx="291.9" cy="21.4" r="18"/>
		<g>
			<path fill="#FFFFFF" d="M294.1,11.9c4.1,0,6.7,2.2,6.7,5.1c0,3.6-4.1,5.5-10.3,5.5H288v0.3c0,2.9,1.3,4.1,3.7,4.1
				c1.6,0,3.4-0.7,4.9-1.6l1.8,3.3c-2.1,1.3-4.5,2.2-7.3,2.2c-4.9,0-8.2-3-8.2-8.1C283,16.6,287.9,11.9,294.1,11.9z M288.7,19.5h1.8
				c4.1,0,5.4-1.2,5.4-2.4c0-0.9-0.8-1.7-2.2-1.7C291.6,15.4,289.6,17,288.7,19.5z"/>
		</g>
	</g>
</g>
<g>
	<g>
		<circle fill="#33BAEC" cx="322.9" cy="768.4" r="18"/>
		<g>
			<path fill="#FFFFFF" d="M325.1,758.7c4.1,0,6.7,2.2,6.7,5.1c0,3.6-4.1,5.5-10.3,5.5H319v0.3c0,2.9,1.3,4.1,3.7,4.1
				c1.6,0,3.4-0.7,4.9-1.6l1.8,3.3c-2.1,1.3-4.5,2.2-7.3,2.2c-4.9,0-8.2-3-8.2-8.1C314.1,763.6,318.8,758.7,325.1,758.7z
				 M319.7,766.5h1.8c4.1,0,5.4-1.2,5.4-2.4c0-0.9-0.8-1.7-2.2-1.7C322.5,762.4,320.7,764,319.7,766.5z"/>
		</g>
	</g>
</g>
<polygon fill="#4E4E50" points="435.2,300.4 425.7,310.2 435.9,310.2 445.4,300.4 "/>
<polygon fill="#4E4E50" points="455.4,300.4 445.8,310.2 456,310.2 465.6,300.4 "/>
<g id="tooltip3" display="none">
	
		<text transform="matrix(0.8943 0 0 1 173.1426 287.0381)" display="inline" fill="#FFFFFF" font-family="'MyriadPro-Regular'" font-size="11.6188">c</text>
	
		<text transform="matrix(0.8943 0 0 1 177.7974 287.0381)" display="inline" fill="#231F20" font-family="'MyriadPro-Regular'" font-size="11.6188">h</text>
	
		<text transform="matrix(0.8943 0 0 1 183.5645 287.0381)" display="inline" fill="#FFFFFF" font-family="'MyriadPro-Regular'" font-size="11.6188">a</text>
	
		<text transform="matrix(0.8943 0 0 1 188.5723 287.0381)" display="inline" fill="#FFFFFF" font-family="'MyriadPro-Regular'" font-size="11.6188">s</text>
	
		<text transform="matrix(0.8943 0 0 1 192.687 287.0381)" display="inline" fill="#FFFFFF" font-family="'MyriadPro-Regular'" font-size="11.6188">e</text>
	
		<text transform="matrix(0.8943 0 0 1 197.8921 287.0381)" display="inline" fill="#FFFFFF" font-family="'MyriadPro-Regular'" font-size="11.6188"> </text>
	
		<text transform="matrix(0.8943 0 0 1 200.0947 287.0381)" display="inline" fill="#FFFFFF" font-family="'MyriadPro-Regular'" font-size="11.6188">t</text>
	
		<text transform="matrix(0.8943 0 0 1 203.5342 287.0381)" display="inline" fill="#FFFFFF" font-family="'MyriadPro-Regular'" font-size="11.6188">h</text>
	
		<text transform="matrix(0.8943 0 0 1 209.3008 287.0381)" display="inline" fill="#FFFFFF" font-family="'MyriadPro-Regular'" font-size="11.6188">e</text>
	
		<text transform="matrix(0.8943 0 0 1 214.5059 287.0381)" display="inline" fill="#FFFFFF" font-family="'MyriadPro-Regular'" font-size="11.6188"> </text>
	
		<text transform="matrix(0.8943 0 0 1 216.7085 287.0381)" display="inline" fill="#FFFFFF" font-family="'MyriadPro-Regular'" font-size="11.6188">r</text>
	
		<text transform="matrix(0.8943 0 0 1 220.1484 287.0381)" display="inline" fill="#FFFFFF" font-family="'MyriadPro-Regular'" font-size="11.6188">i</text>
	
		<text transform="matrix(0.8943 0 0 1 222.5791 287.0381)" display="inline" fill="#FFFFFF" font-family="'MyriadPro-Regular'" font-size="11.6188">g</text>
	
		<text transform="matrix(0.8943 0 0 1 228.3877 287.0381)" display="inline" fill="#FFFFFF" font-family="'MyriadPro-Regular'" font-size="11.6188">h</text>
	
		<text transform="matrix(0.8943 0 0 1 234.1133 287.0381)" display="inline" fill="#FFFFFF" font-family="'MyriadPro-Regular'" font-size="11.6188">t</text>
	
		<text transform="matrix(0.8943 0 0 1 237.5518 287.0381)" display="inline" fill="#FFFFFF" font-family="'MyriadPro-Regular'" font-size="11.6188"> </text>
	
		<text transform="matrix(0.8943 0 0 1 239.7549 287.0381)" display="inline" fill="#FFFFFF" font-family="'MyriadPro-Regular'" font-size="11.6188">t</text>
	
		<text transform="matrix(0.8943 0 0 1 243.1938 287.0381)" display="inline" fill="#FFFFFF" font-family="'MyriadPro-Regular'" font-size="11.6188">a</text>
	
		<text transform="matrix(0.8943 0 0 1 248.2021 287.0381)" display="inline" fill="#FFFFFF" font-family="'MyriadPro-Regular'" font-size="11.6188">r</text>
	
		<text transform="matrix(0.8943 0 0 1 251.5171 287.0381)" display="inline" fill="#FFFFFF" font-family="'MyriadPro-Regular'" font-size="11.6188">g</text>
	
		<text transform="matrix(0.8943 0 0 1 257.3247 287.0381)" display="inline" fill="#FFFFFF" font-family="'MyriadPro-Regular'" font-size="11.6188">e</text>
	
		<text transform="matrix(0.8943 0 0 1 262.5303 287.0381)" display="inline" fill="#FFFFFF" font-family="'MyriadPro-Regular'" font-size="11.6188">t</text>
	
		<text transform="matrix(0.8943 0 0 1 265.939 287.0381)" display="inline" fill="#FFFFFF" font-family="'MyriadPro-Regular'" font-size="11.6188">,</text>
	
		<text transform="matrix(0.8943 0 0 1 268.0889 287.0381)" display="inline" fill="#FFFFFF" font-family="'MyriadPro-Regular'" font-size="11.6188"> </text>
	
		<text transform="matrix(0.8943 0 0 1 270.292 287.0381)" display="inline" fill="#FFFFFF" font-family="'MyriadPro-Regular'" font-size="11.6188">j</text>
	
		<text transform="matrix(0.8943 0 0 1 272.8169 287.0381)" display="inline" fill="#FFFFFF" font-family="'MyriadPro-Regular'" font-size="11.6188">u</text>
	
		<text transform="matrix(0.8943 0 0 1 278.5425 287.0381)" display="inline" fill="#FFFFFF" font-family="'MyriadPro-Regular'" font-size="11.6188">s</text>
	
		<text transform="matrix(0.8943 0 0 1 282.6567 287.0381)" display="inline" fill="#FFFFFF" font-family="'MyriadPro-Regular'" font-size="11.6188">t</text>
	
		<text transform="matrix(0.8943 0 0 1 173.1426 300.9805)" display="inline" fill="#FFFFFF" font-family="'MyriadPro-Regular'" font-size="11.6188">t</text>
	
		<text transform="matrix(0.8943 0 0 1 176.582 300.9805)" display="inline" fill="#FFFFFF" font-family="'MyriadPro-Regular'" font-size="11.6188">h</text>
	
		<text transform="matrix(0.8943 0 0 1 182.3481 300.9805)" display="inline" fill="#FFFFFF" font-family="'MyriadPro-Regular'" font-size="11.6188">e</text>
	
		<text transform="matrix(0.8943 0 0 1 187.5537 300.9805)" display="inline" fill="#FFFFFF" font-family="'MyriadPro-Regular'" font-size="11.6188"> </text>
	
		<text transform="matrix(0.8943 0 0 1 189.7563 300.9805)" display="inline" fill="#FFFFFF" font-family="'MyriadPro-Regular'" font-size="11.6188">r</text>
	
		<text transform="matrix(0.8943 0 0 1 193.1958 300.9805)" display="inline" fill="#FFFFFF" font-family="'MyriadPro-Regular'" font-size="11.6188">i</text>
	
		<text transform="matrix(0.8943 0 0 1 195.627 300.9805)" display="inline" fill="#FFFFFF" font-family="'MyriadPro-Regular'" font-size="11.6188">g</text>
	
		<text transform="matrix(0.8943 0 0 1 201.4355 300.9805)" display="inline" fill="#FFFFFF" font-family="'MyriadPro-Regular'" font-size="11.6188">h</text>
	
		<text transform="matrix(0.8943 0 0 1 207.1602 300.9805)" display="inline" fill="#FFFFFF" font-family="'MyriadPro-Regular'" font-size="11.6188">t</text>
	
		<text transform="matrix(0.8943 0 0 1 210.6001 300.9805)" display="inline" fill="#FFFFFF" font-family="'MyriadPro-Regular'" font-size="11.6188"> </text>
	
		<text transform="matrix(0.8943 0 0 1 212.8022 300.9805)" display="inline" fill="#FFFFFF" font-family="'MyriadPro-Regular'" font-size="11.6188">a</text>
	
		<text transform="matrix(0.8943 0 0 1 217.8105 300.9805)" display="inline" fill="#FFFFFF" font-family="'MyriadPro-Regular'" font-size="11.6188">m</text>
	
		<text transform="matrix(0.8943 0 0 1 226.4761 300.9805)" display="inline" fill="#FFFFFF" font-family="'MyriadPro-Regular'" font-size="11.6188">o</text>
	
		<text transform="matrix(0.8943 0 0 1 232.1807 300.9805)" display="inline" fill="#FFFFFF" font-family="'MyriadPro-Regular'" font-size="11.6188">u</text>
	
		<text transform="matrix(0.8943 0 0 1 237.9053 300.9805)" display="inline" fill="#FFFFFF" font-family="'MyriadPro-Regular'" font-size="11.6188">n</text>
	
		<text transform="matrix(0.8943 0 0 1 243.6304 300.9805)" display="inline" fill="#FFFFFF" font-family="'MyriadPro-Regular'" font-size="11.6188">t</text>
	
		<text transform="matrix(0.8943 0 0 1 247.0703 300.9805)" display="inline" fill="#FFFFFF" font-family="'MyriadPro-Regular'" font-size="11.6188"> </text>
	
		<text transform="matrix(0.8943 0 0 1 249.2729 300.9805)" display="inline" fill="#FFFFFF" font-family="'MyriadPro-Regular'" font-size="11.6188">t</text>
	
		<text transform="matrix(0.8943 0 0 1 252.6489 300.9805)" display="inline" fill="#FFFFFF" font-family="'MyriadPro-Regular'" font-size="11.6188">o</text>
	
		<text transform="matrix(0.8943 0 0 1 258.3535 300.9805)" display="inline" fill="#FFFFFF" font-family="'MyriadPro-Regular'" font-size="11.6188"> </text>
	
		<text transform="matrix(0.8943 0 0 1 260.5566 300.9805)" display="inline" fill="#FFFFFF" font-family="'MyriadPro-Regular'" font-size="11.6188">g</text>
	
		<text transform="matrix(0.8943 0 0 1 266.3647 300.9805)" display="inline" fill="#FFFFFF" font-family="'MyriadPro-Regular'" font-size="11.6188">e</text>
	
		<text transform="matrix(0.8943 0 0 1 271.5708 300.9805)" display="inline" fill="#FFFFFF" font-family="'MyriadPro-Regular'" font-size="11.6188">t</text>
	
		<text transform="matrix(0.8943 0 0 1 173.1426 314.9224)" display="inline" fill="#FFFFFF" font-family="'MyriadPro-Regular'" font-size="11.6188">i</text>
	
		<text transform="matrix(0.8943 0 0 1 175.5737 314.9224)" display="inline" fill="#FFFFFF" font-family="'MyriadPro-Regular'" font-size="11.6188">n</text>
	
		<text transform="matrix(0.8943 0 0 1 181.2983 314.9224)" display="inline" fill="#FFFFFF" font-family="'MyriadPro-Regular'" font-size="11.6188">t</text>
	
		<text transform="matrix(0.8943 0 0 1 184.6758 314.9224)" display="inline" fill="#FFFFFF" font-family="'MyriadPro-Regular'" font-size="11.6188">o</text>
	
		<text transform="matrix(0.8943 0 0 1 190.3804 314.9224)" display="inline" fill="#FFFFFF" font-family="'MyriadPro-Regular'" font-size="11.6188"> </text>
	
		<text transform="matrix(0.8943 0 0 1 192.583 314.9224)" display="inline" fill="#FFFFFF" font-family="'MyriadPro-Regular'" font-size="11.6188">y</text>
	
		<text transform="matrix(0.8943 0 0 1 197.3726 314.9224)" display="inline" fill="#FFFFFF" font-family="'MyriadPro-Regular'" font-size="11.6188">o</text>
	
		<text transform="matrix(0.8943 0 0 1 203.0767 314.9224)" display="inline" fill="#FFFFFF" font-family="'MyriadPro-Regular'" font-size="11.6188">u</text>
	
		<text transform="matrix(0.8943 0 0 1 208.8022 314.9224)" display="inline" fill="#FFFFFF" font-family="'MyriadPro-Regular'" font-size="11.6188">r</text>
	
		<text transform="matrix(0.8943 0 0 1 212.1997 314.9224)" display="inline" fill="#FFFFFF" font-family="'MyriadPro-Regular'" font-size="11.6188"> </text>
	
		<text transform="matrix(0.8943 0 0 1 214.4023 314.9224)" display="inline" fill="#FFFFFF" font-family="'MyriadPro-Regular'" font-size="11.6188">d</text>
	
		<text transform="matrix(0.8943 0 0 1 220.2632 314.9224)" display="inline" fill="#FFFFFF" font-family="'MyriadPro-Regular'" font-size="11.6188">r</text>
	
		<text transform="matrix(0.8943 0 0 1 223.5566 314.9224)" display="inline" fill="#FFFFFF" font-family="'MyriadPro-Regular'" font-size="11.6188">e</text>
	
		<text transform="matrix(0.8943 0 0 1 228.7622 314.9224)" display="inline" fill="#FFFFFF" font-family="'MyriadPro-Regular'" font-size="11.6188">a</text>
	
		<text transform="matrix(0.8943 0 0 1 233.77 314.9224)" display="inline" fill="#FFFFFF" font-family="'MyriadPro-Regular'" font-size="11.6188">m</text>
	
		<text transform="matrix(0.8943 0 0 1 242.4355 314.9224)" display="inline" fill="#FFFFFF" font-family="'MyriadPro-Regular'" font-size="11.6188"> </text>
	
		<text transform="matrix(0.8943 0 0 1 244.6387 314.9224)" display="inline" fill="#FFFFFF" font-family="'MyriadPro-Regular'" font-size="11.6188">c</text>
	
		<text transform="matrix(0.8943 0 0 1 249.231 314.9224)" display="inline" fill="#FFFFFF" font-family="'MyriadPro-Regular'" font-size="11.6188">o</text>
	
		<text transform="matrix(0.8943 0 0 1 254.9355 314.9224)" display="inline" fill="#FFFFFF" font-family="'MyriadPro-Regular'" font-size="11.6188">l</text>
	
		<text transform="matrix(0.8943 0 0 1 257.3877 314.9224)" display="inline" fill="#FFFFFF" font-family="'MyriadPro-Regular'" font-size="11.6188">l</text>
	
		<text transform="matrix(0.8943 0 0 1 259.8398 314.9224)" display="inline" fill="#FFFFFF" font-family="'MyriadPro-Regular'" font-size="11.6188">e</text>
	
		<text transform="matrix(0.8943 0 0 1 265.0454 314.9224)" display="inline" fill="#FFFFFF" font-family="'MyriadPro-Regular'" font-size="11.6188">g</text>
	
		<text transform="matrix(0.8943 0 0 1 270.854 314.9224)" display="inline" fill="#FFFFFF" font-family="'MyriadPro-Regular'" font-size="11.6188">e</text>
	<path display="inline" fill="#25B5E9" d="M313.8,324.5c0,1.1-0.5,1.8-1.6,1.8h-69.1l-6.2,7.6l-6.8-7.6h-72.2
		c-0.1,0-0.2-0.1-0.2-0.2v-55.7c0-0.2,0.2-0.3,0.4-0.3h155.8v54.5L313.8,324.5L313.8,324.5z"/>
</g>
<text transform="matrix(1 0 0 1 165.4001 285.3961)" fill="#FFFFFF" font-family="'MyriadPro-Regular'" font-size="12">          See all your notes.   </text>
<text transform="matrix(1 0 0 1 165.4001 299.7961)" enable-background="new    "><tspan x="0" y="0" fill="#FFFFFF" font-family="'MyriadPro-Regular'" font-size="12">formulas and boookmarked </tspan><tspan x="0" y="14.4" fill="#FFFFFF" font-family="'MyriadPro-Regular'" font-size="12">    questions in one place.</tspan></text>
<path fill="none" d="M304.3,485"/>
<path fill="none" d="M496.4,485"/>
<path fill="none" d="M304.3,485"/>
<path fill="none" d="M496.4,485"/>
<path fill="#F25E54" d="M328,531.8h-7.5c-7.1,0-12.9-5.8-12.9-12.9v-5c0-7.1,5.8-12.9,12.9-12.9h7.5c7.1,0,12.9,5.8,12.9,12.9v5
	C340.9,526,335.1,531.8,328,531.8"/>
<path fill="none" stroke="#4D4D4F" stroke-width="3" stroke-linecap="round" stroke-linejoin="round" stroke-miterlimit="10" d="
	M321.3,493.5L321.3,493.5c1.5,0,2.8,1.3,2.8,2.8v5.8"/>
<path fill="#008C57" d="M341.9,490.9c-2.7-2.1-6.3-2.8-9.8-1.7c-3.5,1.1-6,3.8-7,7.1"/>
<path fill="#29D466" d="M325.1,496.2c2.7,2.1,6.3,2.8,9.8,1.7c3.5-1.1,6-3.8,7-7.1"/>
<path fill="#FFFFFF" d="M336.4,508.3c0,1.6-1.3,2.9-2.9,2.9s-2.9-1.3-2.9-2.9s1.3-2.9,2.9-2.9C335,505.4,336.4,506.7,336.4,508.3"/>
<path fill="none" d="M304.3,485"/>
<path display="none" fill="none" d="M496.4,485"/>
<path id="bite1" display="none" fill="#FFFFFF" d="M314.7,508.3c0,6.9-7.9,11.9-15.2,6.4c-5.5-7.2-0.5-15.2,6.4-15.2
	C310.8,499.6,314.7,503.5,314.7,508.3"/>
<path id="bite2" display="none" fill="#FFFFFF" d="M314.4,520.1c0,6.1-7,10.6-13.4,5.7c-4.9-6.4-0.4-13.4,5.7-13.4
	C311,512.3,314.4,515.8,314.4,520.1"/>
<g id="tooltip1_1_" display="none">
	
		<text transform="matrix(1.3646 0 0 1 212.3086 148.2863)" display="inline" fill="#FFFFFF" font-family="'MyriadPro-Regular'" font-size="7.6143">c</text>
	
		<text transform="matrix(1.3646 0 0 1 216.9628 148.2863)" display="inline" fill="#231F20" font-family="'MyriadPro-Regular'" font-size="7.6143">h</text>
	
		<text transform="matrix(1.3646 0 0 1 222.7305 148.2863)" display="inline" fill="#FFFFFF" font-family="'MyriadPro-Regular'" font-size="7.6143">a</text>
	
		<text transform="matrix(1.3646 0 0 1 227.7383 148.2863)" display="inline" fill="#FFFFFF" font-family="'MyriadPro-Regular'" font-size="7.6143">s</text>
	
		<text transform="matrix(1.3646 0 0 1 231.8525 148.2863)" display="inline" fill="#FFFFFF" font-family="'MyriadPro-Regular'" font-size="7.6143">e</text>
	
		<text transform="matrix(1.3646 0 0 1 237.0576 148.2863)" display="inline" fill="#FFFFFF" font-family="'MyriadPro-Regular'" font-size="7.6143"> </text>
	
		<text transform="matrix(1.3646 0 0 1 239.2607 148.2863)" display="inline" fill="#FFFFFF" font-family="'MyriadPro-Regular'" font-size="7.6143">t</text>
	
		<text transform="matrix(1.3646 0 0 1 242.7001 148.2863)" display="inline" fill="#FFFFFF" font-family="'MyriadPro-Regular'" font-size="7.6143">h</text>
	
		<text transform="matrix(1.3646 0 0 1 248.4668 148.2863)" display="inline" fill="#FFFFFF" font-family="'MyriadPro-Regular'" font-size="7.6143">e</text>
	
		<text transform="matrix(1.3646 0 0 1 253.6719 148.2863)" display="inline" fill="#FFFFFF" font-family="'MyriadPro-Regular'" font-size="7.6143"> </text>
	
		<text transform="matrix(1.3646 0 0 1 255.874 148.2863)" display="inline" fill="#FFFFFF" font-family="'MyriadPro-Regular'" font-size="7.6143">r</text>
	
		<text transform="matrix(1.3646 0 0 1 259.3144 148.2863)" display="inline" fill="#FFFFFF" font-family="'MyriadPro-Regular'" font-size="7.6143">i</text>
	
		<text transform="matrix(1.3646 0 0 1 261.7451 148.2863)" display="inline" fill="#FFFFFF" font-family="'MyriadPro-Regular'" font-size="7.6143">g</text>
	
		<text transform="matrix(1.3646 0 0 1 267.5537 148.2863)" display="inline" fill="#FFFFFF" font-family="'MyriadPro-Regular'" font-size="7.6143">h</text>
	
		<text transform="matrix(1.3646 0 0 1 273.2793 148.2863)" display="inline" fill="#FFFFFF" font-family="'MyriadPro-Regular'" font-size="7.6143">t</text>
	
		<text transform="matrix(1.3646 0 0 1 276.7177 148.2863)" display="inline" fill="#FFFFFF" font-family="'MyriadPro-Regular'" font-size="7.6143"> </text>
	
		<text transform="matrix(1.3646 0 0 1 278.9208 148.2863)" display="inline" fill="#FFFFFF" font-family="'MyriadPro-Regular'" font-size="7.6143">t</text>
	
		<text transform="matrix(1.3646 0 0 1 282.3593 148.2863)" display="inline" fill="#FFFFFF" font-family="'MyriadPro-Regular'" font-size="7.6143">a</text>
	
		<text transform="matrix(1.3646 0 0 1 287.3683 148.2863)" display="inline" fill="#FFFFFF" font-family="'MyriadPro-Regular'" font-size="7.6143">r</text>
	
		<text transform="matrix(1.3646 0 0 1 290.6826 148.2863)" display="inline" fill="#FFFFFF" font-family="'MyriadPro-Regular'" font-size="7.6143">g</text>
	
		<text transform="matrix(1.3646 0 0 1 296.4903 148.2863)" display="inline" fill="#FFFFFF" font-family="'MyriadPro-Regular'" font-size="7.6143">e</text>
	
		<text transform="matrix(1.3646 0 0 1 301.6964 148.2863)" display="inline" fill="#FFFFFF" font-family="'MyriadPro-Regular'" font-size="7.6143">t</text>
	
		<text transform="matrix(1.3646 0 0 1 305.1044 148.2863)" display="inline" fill="#FFFFFF" font-family="'MyriadPro-Regular'" font-size="7.6143">,</text>
	
		<text transform="matrix(1.3646 0 0 1 307.2549 148.2863)" display="inline" fill="#FFFFFF" font-family="'MyriadPro-Regular'" font-size="7.6143"> </text>
	
		<text transform="matrix(1.3646 0 0 1 309.4579 148.2863)" display="inline" fill="#FFFFFF" font-family="'MyriadPro-Regular'" font-size="7.6143">j</text>
	
		<text transform="matrix(1.3646 0 0 1 311.9825 148.2863)" display="inline" fill="#FFFFFF" font-family="'MyriadPro-Regular'" font-size="7.6143">u</text>
	
		<text transform="matrix(1.3646 0 0 1 317.7081 148.2863)" display="inline" fill="#FFFFFF" font-family="'MyriadPro-Regular'" font-size="7.6143">s</text>
	
		<text transform="matrix(1.3646 0 0 1 321.8223 148.2863)" display="inline" fill="#FFFFFF" font-family="'MyriadPro-Regular'" font-size="7.6143">t</text>
	
		<text transform="matrix(1.3646 0 0 1 212.3086 157.4235)" display="inline" fill="#FFFFFF" font-family="'MyriadPro-Regular'" font-size="7.6143">t</text>
	
		<text transform="matrix(1.3646 0 0 1 221.5137 157.4235)" display="inline" fill="#FFFFFF" font-family="'MyriadPro-Regular'" font-size="7.6143">e</text>
	
		<text transform="matrix(1.3646 0 0 1 226.7198 157.4235)" display="inline" fill="#FFFFFF" font-family="'MyriadPro-Regular'" font-size="7.6143"> </text>
	
		<text transform="matrix(1.3646 0 0 1 228.9219 157.4235)" display="inline" fill="#FFFFFF" font-family="'MyriadPro-Regular'" font-size="7.6143">r</text>
	
		<text transform="matrix(1.3646 0 0 1 232.3613 157.4235)" display="inline" fill="#FFFFFF" font-family="'MyriadPro-Regular'" font-size="7.6143">i</text>
	
		<text transform="matrix(1.3646 0 0 1 234.7929 157.4235)" display="inline" fill="#FFFFFF" font-family="'MyriadPro-Regular'" font-size="7.6143">g</text>
	
		<text transform="matrix(1.3646 0 0 1 240.6016 157.4235)" display="inline" fill="#FFFFFF" font-family="'MyriadPro-Regular'" font-size="7.6143">h</text>
	
		<text transform="matrix(1.3646 0 0 1 246.3262 157.4235)" display="inline" fill="#FFFFFF" font-family="'MyriadPro-Regular'" font-size="7.6143">t</text>
	
		<text transform="matrix(1.3646 0 0 1 249.7656 157.4235)" display="inline" fill="#FFFFFF" font-family="'MyriadPro-Regular'" font-size="7.6143"> </text>
	
		<text transform="matrix(1.3646 0 0 1 251.9678 157.4235)" display="inline" fill="#FFFFFF" font-family="'MyriadPro-Regular'" font-size="7.6143">a</text>
	
		<text transform="matrix(1.3646 0 0 1 256.9765 157.4235)" display="inline" fill="#FFFFFF" font-family="'MyriadPro-Regular'" font-size="7.6143">m</text>
	
		<text transform="matrix(1.3646 0 0 1 265.6416 157.4235)" display="inline" fill="#FFFFFF" font-family="'MyriadPro-Regular'" font-size="7.6143">o</text>
	
		<text transform="matrix(1.3646 0 0 1 271.3466 157.4235)" display="inline" fill="#FFFFFF" font-family="'MyriadPro-Regular'" font-size="7.6143">u</text>
	
		<text transform="matrix(1.3646 0 0 1 277.0713 157.4235)" display="inline" fill="#FFFFFF" font-family="'MyriadPro-Regular'" font-size="7.6143">n</text>
	
		<text transform="matrix(1.3646 0 0 1 282.7959 157.4235)" display="inline" fill="#FFFFFF" font-family="'MyriadPro-Regular'" font-size="7.6143">t</text>
	
		<text transform="matrix(1.3646 0 0 1 286.2363 157.4235)" display="inline" fill="#FFFFFF" font-family="'MyriadPro-Regular'" font-size="7.6143"> </text>
	
		<text transform="matrix(1.3646 0 0 1 288.4384 157.4235)" display="inline" fill="#FFFFFF" font-family="'MyriadPro-Regular'" font-size="7.6143">t</text>
	
		<text transform="matrix(1.3646 0 0 1 291.8145 157.4235)" display="inline" fill="#FFFFFF" font-family="'MyriadPro-Regular'" font-size="7.6143">o</text>
	
		<text transform="matrix(1.3646 0 0 1 297.5196 157.4235)" display="inline" fill="#FFFFFF" font-family="'MyriadPro-Regular'" font-size="7.6143"> </text>
	
		<text transform="matrix(1.3646 0 0 1 299.7227 157.4235)" display="inline" fill="#FFFFFF" font-family="'MyriadPro-Regular'" font-size="7.6143">g</text>
	
		<text transform="matrix(1.3646 0 0 1 305.5302 157.4235)" display="inline" fill="#FFFFFF" font-family="'MyriadPro-Regular'" font-size="7.6143">e</text>
	
		<text transform="matrix(1.3646 0 0 1 310.7363 157.4235)" display="inline" fill="#FFFFFF" font-family="'MyriadPro-Regular'" font-size="7.6143">t</text>
	
		<text transform="matrix(1.3646 0 0 1 212.3086 166.5598)" display="inline" fill="#FFFFFF" font-family="'MyriadPro-Regular'" font-size="7.6143">i</text>
	
		<text transform="matrix(1.3646 0 0 1 214.7392 166.5598)" display="inline" fill="#FFFFFF" font-family="'MyriadPro-Regular'" font-size="7.6143">n</text>
	
		<text transform="matrix(1.3646 0 0 1 220.4639 166.5598)" display="inline" fill="#FFFFFF" font-family="'MyriadPro-Regular'" font-size="7.6143">t</text>
	
		<text transform="matrix(1.3646 0 0 1 223.8419 166.5598)" display="inline" fill="#FFFFFF" font-family="'MyriadPro-Regular'" font-size="7.6143">o</text>
	
		<text transform="matrix(1.3646 0 0 1 229.546 166.5598)" display="inline" fill="#FFFFFF" font-family="'MyriadPro-Regular'" font-size="7.6143"> </text>
	
		<text transform="matrix(1.3646 0 0 1 231.7491 166.5598)" display="inline" fill="#FFFFFF" font-family="'MyriadPro-Regular'" font-size="7.6143">y</text>
	
		<text transform="matrix(1.3646 0 0 1 236.5381 166.5598)" display="inline" fill="#FFFFFF" font-family="'MyriadPro-Regular'" font-size="7.6143">o</text>
	
		<text transform="matrix(1.3646 0 0 1 242.2422 166.5598)" display="inline" fill="#FFFFFF" font-family="'MyriadPro-Regular'" font-size="7.6143">u</text>
	
		<text transform="matrix(1.3646 0 0 1 247.9678 166.5598)" display="inline" fill="#FFFFFF" font-family="'MyriadPro-Regular'" font-size="7.6143">r</text>
	
		<text transform="matrix(1.3646 0 0 1 251.3652 166.5598)" display="inline" fill="#FFFFFF" font-family="'MyriadPro-Regular'" font-size="7.6143"> </text>
	
		<text transform="matrix(1.3646 0 0 1 253.5683 166.5598)" display="inline" fill="#FFFFFF" font-family="'MyriadPro-Regular'" font-size="7.6143">d</text>
	
		<text transform="matrix(1.3646 0 0 1 259.4286 166.5598)" display="inline" fill="#FFFFFF" font-family="'MyriadPro-Regular'" font-size="7.6143">r</text>
	
		<text transform="matrix(1.3646 0 0 1 262.7227 166.5598)" display="inline" fill="#FFFFFF" font-family="'MyriadPro-Regular'" font-size="7.6143">e</text>
	
		<text transform="matrix(1.3646 0 0 1 267.9278 166.5598)" display="inline" fill="#FFFFFF" font-family="'MyriadPro-Regular'" font-size="7.6143">a</text>
	
		<text transform="matrix(1.3646 0 0 1 272.9356 166.5598)" display="inline" fill="#FFFFFF" font-family="'MyriadPro-Regular'" font-size="7.6143">m</text>
	
		<text transform="matrix(1.3646 0 0 1 281.6016 166.5598)" display="inline" fill="#FFFFFF" font-family="'MyriadPro-Regular'" font-size="7.6143"> </text>
	
		<text transform="matrix(1.3646 0 0 1 283.8047 166.5598)" display="inline" fill="#FFFFFF" font-family="'MyriadPro-Regular'" font-size="7.6143">c</text>
	
		<text transform="matrix(1.3646 0 0 1 288.3964 166.5598)" display="inline" fill="#FFFFFF" font-family="'MyriadPro-Regular'" font-size="7.6143">o</text>
	
		<text transform="matrix(1.3646 0 0 1 294.1015 166.5598)" display="inline" fill="#FFFFFF" font-family="'MyriadPro-Regular'" font-size="7.6143">l</text>
	
		<text transform="matrix(1.3646 0 0 1 296.5538 166.5598)" display="inline" fill="#FFFFFF" font-family="'MyriadPro-Regular'" font-size="7.6143">l</text>
	
		<text transform="matrix(1.3646 0 0 1 299.0059 166.5598)" display="inline" fill="#FFFFFF" font-family="'MyriadPro-Regular'" font-size="7.6143">e</text>
	
		<text transform="matrix(1.3646 0 0 1 304.211 166.5598)" display="inline" fill="#FFFFFF" font-family="'MyriadPro-Regular'" font-size="7.6143">g</text>
	
		<text transform="matrix(1.3646 0 0 1 310.0195 166.5598)" display="inline" fill="#FFFFFF" font-family="'MyriadPro-Regular'" font-size="7.6143">e</text>
	<path display="inline" fill="#25B5E9" d="M353,172.8c0,0.7-0.5,1.2-1.6,1.2h-69.1l-6.2,5l-6.8-5h-72.2c-0.1,0-0.2-0.1-0.2-0.2
		v-36.5c0-0.1,0.2-0.2,0.4-0.2h155.9v35.7H353z"/>
	
		<text id="tool_x5F_text1" transform="matrix(1.0712 0 0 1 213 158.0451)" display="inline" fill="#FFFFFF" font-family="'MyriadPro-Regular'" font-size="11.2025">  Priorties your revisions.</text>
</g>
<text transform="matrix(1.0712 0 0 1 384.0117 245.9819)" fill="#FFFFFF" font-family="'MyriadPro-Regular'" font-size="11.2025">Get  back into the  classroom</text>
<text transform="matrix(1.0712 0 0 1 384.0117 259.3818)" fill="#FFFFFF" font-family="'MyriadPro-Regular'" font-size="11.2025">  with our solved examples.</text>
<path id="tooltip2" display="none" fill="#25B5E9" d="M528.3,277.8c0,1-0.5,1.6-1.7,1.6h-73l-6.5,6.7l-7.2-6.7h-76.2
	c-0.1,0-0.3-0.1-0.3-0.2v-49c0-0.2,0.2-0.3,0.4-0.3h164.6v47.9H528.3z"/>
<text transform="matrix(1.0632 0 0 1 371.9995 251.2502)"><tspan x="0" y="0" fill="#FFFFFF" font-family="'MyriadPro-Regular'" font-size="12">Get back into the classroom</tspan><tspan x="0" y="14.4" fill="#FFFFFF" font-family="'MyriadPro-Regular'" font-size="12">with our solved example.</tspan></text>
</svg>
