<?xml version="1.0" encoding="utf-8"?>
<!-- Generator: Adobe Illustrator 18.1.1, SVG Export Plug-In . SVG Version: 6.00 Build 0)  -->
<svg version="1.1" id="Layer_1" xmlns="http://www.w3.org/2000/svg" xmlns:xlink="http://www.w3.org/1999/xlink" x="0px" y="0px"
	 viewBox="0 0 350 770" enable-background="new 0 0 350 770" xml:space="preserve">
<path fill="none" stroke="#CCCCCC" stroke-width="3" stroke-miterlimit="10" d="M162,14v181c0,3.7,1.1,7.3,3.2,10.4v0
	c3.4,5,9.1,8,15.1,8h31.2c4.6,0,8.9,1.9,12.1,5.2l0,0c2.9,3.1,4.4,7.1,4.4,11.3v73.8c0,5.4,2.1,10.6,5.8,14.5v0
	c4,4.2,9.5,6.6,15.3,6.6h57.7c6.3,0,12.2,2.9,16,7.9l0,0c2.8,3.6,4.2,7.9,4.2,12.4v39.3c0,3.3-1.1,6.6-3.1,9.2v0
	c-2.9,3.7-7.3,5.9-12,5.9H175V356c0,0-15-49.3-35.7-10c0,0,4,18,8.7-0.7c0,0-14.7-37.3-31.3,2.7c0,0,7.4,14.6,8,0c0,0-15.3-42-30,2
	c0,0,3.3,10,8-1.3c0,0-13.3-42.7-30.7,0c0,0,2.7,13.3,8,0c0,0-14.7-41.3-30.7,0.7c0,0,5.3,8.7,9.3,0c0,0-12.7-43.3-35.7,2.7v101.5
	c0,5.9,2.3,11.5,6.4,15.7l0,0c4.2,4.3,10,6.8,16.1,6.8h8.1c4.4,0,8.6,2.1,11.2,5.8h0c1.7,2.3,2.6,5.1,2.6,8v15.5
	c0,5.2,2.1,10.1,5.9,13.7h0c3.5,3.3,8.1,5.1,12.9,5.1h196.6c5.9,0,11.7,2.2,16.1,6.2h0c5,4.5,7.8,11,7.8,17.7v65.3
	c0,4.8-1.8,9.4-5.1,12.9h0c-3.5,3.8-8.5,5.9-13.7,5.9h-75.1c-6.7,0-13,3.4-16.7,8.9l0,0c-2.2,3.3-3.4,7.2-3.4,11.1V756"/>
<path id="fillpath" fill="none" stroke="#2DB8EB" stroke-width="3" stroke-miterlimit="10" d="M162,14v181c0,3.7,1.1,7.3,3.2,10.4v0
	c3.4,5,9.1,8,15.1,8h31.2c4.6,0,8.9,1.9,12.1,5.2l0,0c2.9,3.1,4.4,7.1,4.4,11.3v73.8c0,5.4,2.1,10.6,5.8,14.5v0
	c4,4.2,9.5,6.6,15.3,6.6h57.7c6.3,0,12.2,2.9,16,7.9l0,0c2.8,3.6,4.2,7.9,4.2,12.4v39.3c0,3.3-1.1,6.6-3.1,9.2v0
	c-2.9,3.7-7.3,5.9-12,5.9H175V356c0,0-15-49.3-35.7-10c0,0,4,18,8.7-0.7c0,0-14.7-37.3-31.3,2.7c0,0,7.4,14.6,8,0c0,0-15.3-42-30,2
	c0,0,3.3,10,8-1.3c0,0-13.3-42.7-30.7,0c0,0,2.7,13.3,8,0c0,0-14.7-41.3-30.7,0.7c0,0,5.3,8.7,9.3,0c0,0-12.7-43.3-35.7,2.7v101.5
	c0,5.9,2.3,11.5,6.4,15.7l0,0c4.2,4.3,10,6.8,16.1,6.8h8.1c4.4,0,8.6,2.1,11.2,5.8h0c1.7,2.3,2.6,5.1,2.6,8v15.5
	c0,5.2,2.1,10.1,5.9,13.7h0c3.5,3.3,8.1,5.1,12.9,5.1h196.6c5.9,0,11.7,2.2,16.1,6.2h0c5,4.5,7.8,11,7.8,17.7v65.3
	c0,4.8-1.8,9.4-5.1,12.9h0c-3.5,3.8-8.5,5.9-13.7,5.9h-75.1c-6.7,0-13,3.4-16.7,8.9l0,0c-2.2,3.3-3.4,7.2-3.4,11.1V756"/>
<g>
	<defs>
		<rect id="SVGID_1_" x="107.5" y="178.2" width="82.7" height="77.6"/>
	</defs>
	<clipPath id="SVGID_2_">
		<use xlink:href="#SVGID_1_"  overflow="visible"/>
	</clipPath>
	<path clip-path="url(#SVGID_2_)" fill="#FEE7AD" d="M142.8,216.5c0,1-0.8,1.9-1.9,1.9h-31.1c-1,0-1.9-0.8-1.9-1.9v-29.4
		c0-1,0.8-1.9,1.9-1.9h31.1c1,0,1.9,0.8,1.9,1.9V216.5z"/>
	<path clip-path="url(#SVGID_2_)" fill="#C3E3CB" d="M182.3,216.5c0,1-0.8,1.9-1.9,1.9h-31.1c-1,0-1.9-0.8-1.9-1.9v-29.4
		c0-1,0.8-1.9,1.9-1.9h31.1c1,0,1.9,0.8,1.9,1.9V216.5z"/>
	<path clip-path="url(#SVGID_2_)" fill="#C5E9F4" d="M142.8,253.9c0,1-0.8,1.9-1.9,1.9h-31.1c-1,0-1.9-0.8-1.9-1.9v-29.4
		c0-1,0.8-1.9,1.9-1.9h31.1c1,0,1.9,0.8,1.9,1.9V253.9z"/>
	<path clip-path="url(#SVGID_2_)" fill="#FABFB9" d="M182.3,253.9c0,1-0.8,1.9-1.9,1.9h-31.1c-1,0-1.9-0.8-1.9-1.9v-29.4
		c0-1,0.8-1.9,1.9-1.9h31.1c1,0,1.9,0.8,1.9,1.9V253.9z"/>
	<path clip-path="url(#SVGID_2_)" fill="none" stroke="#F8961D" stroke-miterlimit="10" d="M142.8,211.5H108 M142.8,205H108
		 M142.8,198.2H108 M142.8,191.3H108"/>
</g>
<path fill="none" stroke="#50B966" stroke-miterlimit="10" d="M182.2,211.5h-34.9 M182.2,205h-34.9 M182.2,198.2h-34.9 M182.2,191.3
	h-34.9"/>
<g>
	<defs>
		<rect id="SVGID_3_" x="107.5" y="178.2" width="82.7" height="77.6"/>
	</defs>
	<clipPath id="SVGID_4_">
		<use xlink:href="#SVGID_3_"  overflow="visible"/>
	</clipPath>
	<path clip-path="url(#SVGID_4_)" fill="none" stroke="#26ADDF" stroke-miterlimit="10" d="M142.8,249.5H108 M142.8,243H108
		 M142.8,236.2H108 M142.8,229.3H108"/>
</g>
<path fill="none" stroke="#E85F54" stroke-miterlimit="10" d="M182.2,249.5h-34.9 M182.2,243h-34.9 M182.2,236.2h-34.9 M182.2,229.3
	h-34.9"/>
<g id="points" display="none">
	<defs>
		<rect id="SVGID_5_" x="107.5" y="178.2" width="82.7" height="77.6"/>
	</defs>
	<clipPath id="SVGID_6_" display="inline">
		<use xlink:href="#SVGID_5_"  overflow="visible"/>
	</clipPath>
	
		<line display="inline" clip-path="url(#SVGID_6_)" fill="none" stroke="#4E4E50" stroke-width="4" stroke-linejoin="round" stroke-miterlimit="10" x1="145.3" y1="178.8" x2="145.3" y2="255.3"/>
	
		<polyline display="inline" clip-path="url(#SVGID_6_)" fill="none" stroke="#4E4E50" stroke-width="4" stroke-linecap="round" stroke-linejoin="round" stroke-miterlimit="10" points="
		142.6,181.5 145.2,179 147.7,181.5 	"/>
	
		<line display="inline" clip-path="url(#SVGID_6_)" fill="none" stroke="#4E4E50" stroke-width="4" stroke-linejoin="round" stroke-miterlimit="10" x1="188.3" y1="220.5" x2="107.5" y2="220.5"/>
	
		<polyline display="inline" clip-path="url(#SVGID_6_)" fill="none" stroke="#4E4E50" stroke-width="4" stroke-linecap="round" stroke-linejoin="round" stroke-miterlimit="10" points="
		186.9,218 189.4,220.6 186.9,223.1 	"/>
	<path display="inline" clip-path="url(#SVGID_6_)" fill="#26ADDF" d="M135.4,246c0,2-1.6,3.7-3.7,3.7c-2,0-3.7-1.6-3.7-3.7
		s1.6-3.7,3.7-3.7C133.8,242.4,135.4,244,135.4,246"/>
	
		<circle display="inline" clip-path="url(#SVGID_6_)" fill="none" stroke="#FFFFFF" stroke-width="2" stroke-miterlimit="10" cx="131.7" cy="246" r="3.7"/>
	<path display="inline" clip-path="url(#SVGID_6_)" fill="#E85F54" d="M172.4,233.1c0,2-1.6,3.7-3.7,3.7c-2,0-3.7-1.6-3.7-3.7
		s1.6-3.7,3.7-3.7C170.7,229.5,172.4,231.1,172.4,233.1"/>
	
		<circle display="inline" clip-path="url(#SVGID_6_)" fill="none" stroke="#FFFFFF" stroke-width="2" stroke-miterlimit="10" cx="168.7" cy="233.1" r="3.7"/>
	<path display="inline" clip-path="url(#SVGID_6_)" fill="#50B966" d="M172.1,202.9c0,2-1.6,3.7-3.7,3.7c-2,0-3.7-1.6-3.7-3.7
		s1.6-3.7,3.7-3.7C170.5,199.2,172.1,200.9,172.1,202.9"/>
	
		<circle display="inline" clip-path="url(#SVGID_6_)" fill="none" stroke="#FFFFFF" stroke-width="2" stroke-miterlimit="10" cx="168.5" cy="202.9" r="3.7"/>
	<path display="inline" clip-path="url(#SVGID_6_)" fill="#F8961D" d="M132.5,198.9c0,2-1.6,3.7-3.7,3.7c-2,0-3.7-1.6-3.7-3.7
		c0-2,1.6-3.7,3.7-3.7C130.9,195.2,132.5,196.9,132.5,198.9"/>
	
		<circle display="inline" clip-path="url(#SVGID_6_)" fill="none" stroke="#FFFFFF" stroke-width="2" stroke-miterlimit="10" cx="128.8" cy="198.9" r="3.7"/>
	<path display="inline" clip-path="url(#SVGID_6_)" fill="#26ADDF" d="M120.5,233.2c0,2-1.6,3.7-3.7,3.7c-2,0-3.7-1.6-3.7-3.7
		s1.6-3.7,3.7-3.7C118.8,229.5,120.5,231.2,120.5,233.2"/>
	
		<circle display="inline" clip-path="url(#SVGID_6_)" fill="none" stroke="#FFFFFF" stroke-width="2" stroke-miterlimit="10" cx="116.8" cy="233.2" r="3.7"/>
</g>
<path fill="none" d="M353.7,25.2"/>
<path fill="none" d="M-278.7,152.3"/>
<path fill="none" d="M353.7,25.2"/>
<path fill="none" d="M-278.7,152.3"/>
<path fill="none" d="M353.7,25.2"/>
<path fill="none" d="M-278.7,152.3"/>
<path fill="none" d="M353.7,25.2"/>
<path fill="none" d="M-278.7,152.3"/>
<path fill="none" d="M353.7,25.2"/>
<path fill="none" d="M-278.7,152.3"/>
<path fill="none" d="M353.7,25.2"/>
<path fill="none" d="M-278.7,152.3"/>
<path fill="none" d="M353.7,25.2"/>
<path fill="none" d="M-278.7,152.3"/>
<path fill="none" d="M353.7,25.2"/>
<path fill="none" d="M-278.7,152.3"/>
<path fill="none" d="M353.7,25.2"/>
<path fill="none" d="M-278.7,152.3"/>
<g id="cam">
	<path fill="#26ADDF" d="M269.9,337.7c-1.1,0-2.1-0.9-2.1-2.1v-36.9c0-1.1,0.9-2.1,2.1-2.1h55.5c1.1,0,2.1,0.9,2.1,2.1v36.9
		c0,1.1-0.9,2.1-2.1,2.1H269.9z"/>
	<path fill="#1D6C8D" d="M325.3,295.1h-55.5c-2,0-3.6,1.6-3.6,3.6v36.9c0,2,1.6,3.6,3.6,3.6h55.5c2,0,3.6-1.6,3.6-3.6v-36.9
		C328.9,296.7,327.3,295.1,325.3,295.1 M325.3,298.2c0.3,0,0.5,0.3,0.5,0.5v36.9c0,0.3-0.3,0.5-0.5,0.5h-55.5
		c-0.3,0-0.5-0.3-0.5-0.5v-36.9c0-0.3,0.3-0.5,0.5-0.5H325.3z"/>
	<path fill="#FFC74C" d="M263.9,292.1l0-6.6c0-1.6,1.3-2.8,2.8-2.8l62.6,0c1.6,0,2.9,1.3,2.9,2.9l0,3.7c0,1.6-1.3,2.8-2.8,2.8
		L263.9,292.1z"/>
	<polygon fill="#4E4E50" points="320.3,292 310.9,282.6 320.9,282.6 330.2,292 	"/>
	<polygon fill="#4E4E50" points="300.6,292 291.3,282.6 301.2,282.6 310.5,292 	"/>
	<polygon fill="#4E4E50" points="281.3,292.1 271.9,282.6 281.8,282.6 291.2,292 	"/>
	<path fill="#4E4E50" d="M263.9,292.1l0-6.6c0-0.8,0.4-1.5,0.9-2l8.6,8.6L263.9,292.1z"/>
	<path fill="#1D6C8D" d="M294.9,311.3l11.1,6.5c0.7,0.4,0.6,1.4-0.1,1.8l-11,6.5c-0.7,0.4-1.4-0.1-1.4-0.9v-12.9
		C293.5,311.4,294.2,310.9,294.9,311.3"/>
	<path fill="#FFC74C" d="M263.9,292.1v6.6c0,1.6,1.3,2.8,2.8,2.8h62.6c1.6,0,2.9-1.3,2.9-2.9v-3.7c0-1.6-1.3-2.8-2.8-2.8H263.9z"/>
	<polygon fill="#4E4E50" points="320.4,292 311,301.5 320.9,301.5 330.3,292 	"/>
	<polygon fill="#4E4E50" points="300.7,292 291.3,301.5 301.3,301.5 310.6,292 	"/>
	<polygon fill="#4E4E50" points="281.3,292 272,301.5 281.9,301.5 291.2,292 	"/>
	<path fill="#4E4E50" d="M263.8,292v6.7c0,0.8,0.5,1.4,1,1.9l8.6-8.6H263.8z"/>
	<g>
		<defs>
			<rect id="SVGID_7_" x="259.2" y="289.7" width="75.4" height="4.7"/>
		</defs>
		<clipPath id="SVGID_8_">
			<use xlink:href="#SVGID_7_"  overflow="visible"/>
		</clipPath>
		<path clip-path="url(#SVGID_8_)" fill="#F8961D" d="M263.9,292.1v6.6c0,1.6,1.3,2.8,2.8,2.8h62.6c1.6,0,2.9-1.3,2.9-2.9v-3.7
			c0-1.6-1.3-2.8-2.8-2.8H263.9z"/>
	</g>
	<polygon fill="#273036" points="320.4,292 318,294.4 327.9,294.4 330.3,292 	"/>
	<polygon fill="#273036" points="300.7,292 298.3,294.4 308.2,294.4 310.6,292 	"/>
	<polygon fill="#273036" points="281.3,292 278.9,294.4 288.8,294.4 291.2,292 	"/>
	<g>
		<defs>
			<rect id="SVGID_9_" x="259.2" y="289.7" width="75.4" height="4.7"/>
		</defs>
		<clipPath id="SVGID_10_">
			<use xlink:href="#SVGID_9_"  overflow="visible"/>
		</clipPath>
		<path clip-path="url(#SVGID_10_)" fill="#273036" d="M263.8,292v6.7c0,0.8,0.5,1.4,1,1.9l8.6-8.6H263.8z"/>
	</g>
	<path fill="#E85F54" d="M265.7,301.3l8.1-8.2c0.7-0.7,0.7-1.9,0-2.6l-8.1-8.2c-1.2-1.2-3.2-0.4-3.2,1.3V300
		C262.5,301.7,264.5,302.5,265.7,301.3"/>
	<path fill="#FFFFFF" d="M269.4,291.5c0,1-0.8,1.8-1.8,1.8c-1,0-1.8-0.8-1.8-1.8c0-1,0.8-1.8,1.8-1.8
		C268.6,289.7,269.4,290.5,269.4,291.5"/>
	<path fill="#FFFFFF" d="M293.6,310.4l11.2,6.5c0.7,0.4,0.7,1.4,0,1.8l-11.3,6.5c-0.7,0.4-1.6-0.1-1.6-0.9v-12.9
		C292,310.5,292.9,310,293.6,310.4"/>
	<g id="rays" display="none">
		
			<line display="inline" fill="none" stroke="#1D6C8D" stroke-width="4" stroke-linecap="round" stroke-linejoin="round" stroke-miterlimit="10" x1="336.7" y1="276.9" x2="341" y2="271.2"/>
		
			<line display="inline" fill="none" stroke="#1D6C8D" stroke-width="4" stroke-linecap="round" stroke-linejoin="round" stroke-miterlimit="10" x1="339" y1="280.1" x2="345.2" y2="276.5"/>
		
			<line display="inline" fill="none" stroke="#1D6C8D" stroke-width="4" stroke-linecap="round" stroke-linejoin="round" stroke-miterlimit="10" x1="340" y1="283.5" x2="347.2" y2="283.2"/>
		
			<line display="inline" fill="none" stroke="#1D6C8D" stroke-width="4" stroke-linecap="round" stroke-linejoin="round" stroke-miterlimit="10" x1="339.6" y1="287.1" x2="346.1" y2="290.2"/>
	</g>
</g>
<g>
	<path fill="#29B463" d="M116.8,367.9v25.9c0,1.5-1.3,2.8-2.8,2.8H89c-1.5,0-2.8-1.3-2.8-2.8v-25.9c0-1.5,1.3-2.8,2.8-2.8H114
		C115.5,365.1,116.8,366.3,116.8,367.9z"/>
	<g>
		<path fill="#FFFFFF" d="M92.5,389.2l0.8-1.8c0.4,0.2,0.7,0.3,1,0.3c0.7,0,1.1-0.4,1.2-1.1l1.5-7.8h-1.4l0.4-1.9h1.4l0.1-0.5
			c0.2-1.1,0.6-1.9,1.3-2.4c0.6-0.5,1.4-0.8,2.4-0.8c0.7,0,1.2,0.1,1.6,0.4l-0.8,1.8c-0.4-0.2-0.7-0.3-1-0.3c-0.7,0-1.1,0.4-1.2,1.1
			l-0.1,0.6h1.9l-0.4,1.9h-1.9l-1.5,7.7c-0.2,1.1-0.6,1.9-1.3,2.4c-0.6,0.5-1.4,0.8-2.4,0.8C93.4,389.5,92.8,389.4,92.5,389.2z"/>
		<path fill="#FFFFFF" d="M102.5,385.8l3-4.8l-2.6-4.2h2.3l1.5,2.3l1.5-2.3h2.3l-2.6,4.2l3,4.8h-2.3l-1.8-2.9l-1.8,2.9H102.5z"/>
	</g>
	<path fill="#1B6C8D" d="M190.3,368.4v25.9c0,1.5-1.3,2.8-2.8,2.8h-24.9c-1.5,0-2.8-1.3-2.8-2.8v-25.9c0-1.5,1.3-2.8,2.8-2.8h24.9
		C189,365.6,190.3,366.9,190.3,368.4z"/>
	<g>
		<path fill="#FFFFFF" d="M171.1,372.6c1-0.6,2.2-1,3.7-1c1.9,0,3.5,0.5,4.8,1.4c1.3,0.9,1.9,2.3,1.9,4.1c0,1.1-0.3,2-0.8,2.8
			c-0.3,0.5-0.9,1-1.9,1.8l-0.9,0.7c-0.5,0.4-0.8,0.8-1,1.3c-0.1,0.3-0.2,0.8-0.2,1.5h-3.5c0.1-1.4,0.2-2.4,0.4-3
			c0.2-0.5,0.8-1.2,1.7-1.9l0.9-0.7c0.3-0.2,0.6-0.5,0.7-0.8c0.3-0.5,0.5-1,0.5-1.5c0-0.6-0.2-1.2-0.6-1.8c-0.4-0.5-1.1-0.8-2.1-0.8
			c-1,0-1.7,0.3-2.1,1c-0.4,0.7-0.6,1.3-0.6,2h-3.7C168.6,375.3,169.5,373.6,171.1,372.6z M173.2,386.9h3.8v3.7h-3.8V386.9z"/>
	</g>
	<g>
		<path fill="#E96155" d="M38.3,368.3v25.9c0,1.5-1.3,2.8-2.8,2.8H10.5c-1.5,0-2.8-1.3-2.8-2.8v-25.9c0-1.5,1.3-2.8,2.8-2.8h24.9
			C37,365.5,38.3,366.8,38.3,368.3z"/>
	</g>
	<path fill="#FFFFFF" d="M31.7,379.8h-1c-0.2,0-0.3-0.1-0.4-0.3c-0.2-0.6-0.4-1.2-0.7-1.8c-0.1-0.2-0.1-0.3,0-0.5l0.7-0.8
		c0.1-0.2,0.1-0.4,0-0.6l-1.8-1.7c-0.2-0.1-0.4-0.1-0.6,0l-0.7,0.7c-0.1,0.1-0.3,0.2-0.5,0.1c-0.5-0.3-1.1-0.5-1.7-0.7
		c-0.2,0-0.3-0.2-0.3-0.4v-1c0-0.2-0.2-0.4-0.4-0.4H22c-0.2,0-0.4,0.2-0.4,0.4v1c0,0.2-0.1,0.3-0.3,0.4c-0.6,0.2-1.2,0.4-1.7,0.7
		c-0.2,0.1-0.4,0.1-0.5-0.1l-0.7-0.7c-0.2-0.2-0.4-0.2-0.6,0l-1.7,1.7c-0.2,0.2-0.2,0.4,0,0.6l0.7,0.7c0.1,0.1,0.1,0.3,0.1,0.5
		c-0.3,0.5-0.6,1.1-0.7,1.7c0,0.2-0.2,0.3-0.4,0.3h-1c-0.2,0-0.4,0.2-0.4,0.4v2.4c0,0.2,0.2,0.4,0.4,0.4h1c0.2,0,0.3,0.1,0.4,0.3
		c0.2,0.6,0.4,1.2,0.7,1.7c0.1,0.2,0.1,0.4-0.1,0.5l-0.7,0.7c-0.2,0.2-0.2,0.4,0,0.6l1.7,1.7c0.2,0.2,0.4,0.2,0.6,0l0.7-0.7
		c0.1-0.1,0.3-0.1,0.5-0.1c0.5,0.3,1.1,0.6,1.7,0.7c0.2,0,0.3,0.2,0.3,0.4v1c0,0.2,0.2,0.4,0.4,0.4h2.4c0.2,0,0.4-0.2,0.4-0.4v-1
		c0-0.2,0.1-0.3,0.3-0.4c0.6-0.2,1.2-0.4,1.7-0.7c0.2-0.1,0.4-0.1,0.5,0.1l0.7,0.7c0.2,0.2,0.4,0.2,0.6,0l1.7-1.7
		c0.2-0.2,0.2-0.4,0-0.6l-0.7-0.7c-0.1-0.1-0.1-0.3-0.1-0.5c0.3-0.5,0.6-1.1,0.7-1.7c0-0.2,0.2-0.3,0.4-0.3h1c0.2,0,0.4-0.2,0.4-0.4
		v-2.4C32,380,31.9,379.8,31.7,379.8z M23.2,385.3c-2.2,0-3.9-1.8-3.9-3.9s1.8-3.9,3.9-3.9s3.9,1.8,3.9,3.9S25.4,385.3,23.2,385.3z"
		/>
</g>
<g>
	<g>
		<defs>
			<rect id="SVGID_11_" x="159.7" y="480.1" width="127.7" height="95.8"/>
		</defs>
		<clipPath id="SVGID_12_">
			<use xlink:href="#SVGID_11_"  overflow="visible"/>
		</clipPath>
		<path clip-path="url(#SVGID_12_)" fill="#F16055" d="M207.8,490.5h-6.3c-1.6,0-3.1,0.4-4.4,1c0.6,1.2,1,2.6,1,4.1
			c0,4.4-3.2,8.1-7.4,8.8v1.1c0,6,4.9,10.9,10.9,10.9h6.3c6,0,10.9-4.9,10.9-10.9v-4.2C218.7,495.4,213.8,490.5,207.8,490.5"/>
		<path clip-path="url(#SVGID_12_)" fill="#196C95" d="M166.2,532.2h45.5c4.7,0,8.6,3.8,8.6,8.6v1.1c0,4.7-3.8,8.6-8.6,8.6h-45.5
			V532.2z"/>
		<path clip-path="url(#SVGID_12_)" fill="#E5E8E7" d="M166.2,534.2h45.7c3.5,0,6.4,2.9,6.4,6.4v1.5c0,3.5-2.9,6.4-6.4,6.4h-45.7
			V534.2z"/>
	</g>
	<path fill="none" stroke="#FFFFFF" stroke-width="2" stroke-miterlimit="10" d="M213.7,536h-47.5 M215.6,538.1h-49.5 M216.6,540.3
		h-50.4 M216.6,542.4h-50.5 M215.7,544.5h-49.5 M213.8,546.6h-47.7"/>
	<g>
		<defs>
			<rect id="SVGID_13_" x="159.7" y="480.1" width="127.7" height="95.8"/>
		</defs>
		<clipPath id="SVGID_14_">
			<use xlink:href="#SVGID_13_"  overflow="visible"/>
		</clipPath>
		<path clip-path="url(#SVGID_14_)" fill="#E85F54" d="M213.8,573.1h-45.5c-4.7,0-8.6-3.8-8.6-8.6v-1.1c0-4.7,3.8-8.6,8.6-8.6h45.5
			V573.1z"/>
		<path clip-path="url(#SVGID_14_)" fill="#E5E8E7" d="M213.8,571.2H168c-3.5,0-6.4-2.9-6.4-6.4v-1.5c0-3.5,2.9-6.4,6.4-6.4h45.7
			V571.2z"/>
	</g>
	<path fill="none" stroke="#FFFFFF" stroke-width="2" stroke-miterlimit="10" d="M166.3,569.4h47.5 M164.3,567.2h49.5 M163.4,565.1
		h50.4 M163.3,563h50.5 M164.2,560.9h49.5 M166.1,558.8h47.7"/>
	<g>
		<defs>
			<rect id="SVGID_15_" x="159.7" y="480.1" width="127.7" height="95.8"/>
		</defs>
		<clipPath id="SVGID_16_">
			<use xlink:href="#SVGID_15_"  overflow="visible"/>
		</clipPath>
		<path clip-path="url(#SVGID_16_)" fill="#714FA0" d="M287.4,575.8h-51.5c-5.4,0-9.7-4.4-9.7-9.7v-1.3c0-5.4,4.4-9.7,9.7-9.7h51.5
			V575.8z"/>
		<path clip-path="url(#SVGID_16_)" fill="#714FA0" d="M287.4,563.9c0,0-61.3,6.3-61.3,1v-59.1c0-5.4,4.4-9.7,9.7-9.7h51.5V563.9z"
			/>
		<path clip-path="url(#SVGID_16_)" fill="#E5E8E7" d="M287.4,573.6h-51.5c-4.2,0-7.6-3.4-7.6-7.6v-1.1c0-4.2,3.4-7.6,7.6-7.6h51.5
			V573.6z"/>
		<path clip-path="url(#SVGID_16_)" fill="none" stroke="#FFFFFF" stroke-width="2" stroke-miterlimit="10" d="M272.7,520
			c-1.9-3.2-9.4-2.4-16.8,1.9c-7.4,4.3-11.9,10.4-10.1,13.6c1.9,3.2,9.4,2.4,16.8-1.9C270.1,529.3,274.6,523.2,272.7,520z
			 M272.7,535.5c1.9-3.2-2.6-9.3-10.1-13.6c-7.4-4.3-14.9-5.1-16.8-1.9c-1.9,3.2,2.6,9.3,10.1,13.6
			C263.4,537.8,270.9,538.7,272.7,535.5z M259.3,543.2c3.7,0,6.7-6.9,6.7-15.5c0-8.6-3-15.5-6.7-15.5c-3.7,0-6.7,6.9-6.7,15.5
			C252.6,536.3,255.6,543.2,259.3,543.2z M233.6,571.5h53.8 M231.4,569.1h56.1 M230.3,566.7h57.1 M230.2,564.3h57.2 M231.3,561.9
			h56.2 M233.4,559.5h54"/>
		<path clip-path="url(#SVGID_16_)" fill="#FFFFFF" d="M259.3,530.7c1.7,0,3-1.4,3-3c0-1.7-1.4-3-3-3s-3,1.4-3,3
			C256.3,529.4,257.6,530.7,259.3,530.7"/>
		<path clip-path="url(#SVGID_16_)" fill="#FDB515" d="M263.7,513.3c0,1.1-0.9,1.9-1.9,1.9s-1.9-0.9-1.9-1.9s0.9-1.9,1.9-1.9
			S263.7,512.2,263.7,513.3"/>
		<path clip-path="url(#SVGID_16_)" fill="#FDB515" d="M250.9,537.4c0,1.1-0.9,1.9-1.9,1.9c-1.1,0-1.9-0.9-1.9-1.9s0.9-1.9,1.9-1.9
			C250,535.5,250.9,536.3,250.9,537.4"/>
		<path clip-path="url(#SVGID_16_)" fill="#FDB515" d="M274.3,524.3c0,1.1-0.9,1.9-1.9,1.9c-1.1,0-1.9-0.9-1.9-1.9s0.9-1.9,1.9-1.9
			C273.4,522.4,274.3,523.2,274.3,524.3"/>
		
			<path clip-path="url(#SVGID_16_)" fill="none" stroke="#4E4E50" stroke-width="3" stroke-linecap="round" stroke-linejoin="round" stroke-miterlimit="10" d="
			M202.1,484.2L202.1,484.2c1.3,0,2.4,1.1,2.4,2.4v4.9"/>
		<path clip-path="url(#SVGID_16_)" fill="#008D58" d="M219.5,482c-2.3-1.7-5.3-2.4-8.3-1.5c-2.9,0.9-5.1,3.2-5.9,6"/>
		<path clip-path="url(#SVGID_16_)" fill="#54BA63" d="M205.3,486.5c2.3,1.7,5.3,2.4,8.3,1.5c2.9-0.9,5.1-3.2,5.9-6"/>
		<path clip-path="url(#SVGID_16_)" fill="#FFFFFF" d="M213.2,497.6c0,1.1-0.9,1.9-1.9,1.9c-1.1,0-1.9-0.9-1.9-1.9
			c0-1.1,0.9-1.9,1.9-1.9C212.3,495.6,213.2,496.5,213.2,497.6"/>
	</g>
</g>
<circle id="bite" display="none" fill="#FFFFFF" stroke="#FFFFFF" stroke-width="2" stroke-miterlimit="10" cx="188.5" cy="508.4" r="8.4"/>
<g>
	<g>
		<circle fill="#33BAEC" cx="161.3" cy="20.8" r="17.5"/>
		<g>
			<path fill="#FFFFFF" d="M163.5,11.5c4,0,6.5,2.2,6.5,5c0,3.5-4,5.4-10,5.4h-2.4v0.2c0,2.8,1.3,4,3.6,4c1.6,0,3.3-0.7,4.8-1.5
				l1.8,3.2c-2,1.3-4.3,2.2-7.1,2.2c-4.7,0-7.9-3-7.9-7.8C152.7,16.2,157.4,11.5,163.5,11.5z M158.2,19h1.8c4,0,5.3-1.1,5.3-2.3
				c0-0.9-0.8-1.7-2.2-1.7C161,15,159.1,16.6,158.2,19z"/>
		</g>
	</g>
</g>
<g>
	<g>
		<circle fill="#33BAEC" cx="191.4" cy="747" r="17.5"/>
		<g>
			<path fill="#FFFFFF" d="M193.6,737.7c4,0,6.5,2.2,6.5,5c0,3.5-4,5.4-10,5.4h-2.4v0.2c0,2.8,1.3,4,3.6,4c1.6,0,3.3-0.7,4.8-1.5
				l1.8,3.2c-2,1.3-4.3,2.2-7.1,2.2c-4.7,0-7.9-3-7.9-7.8C182.8,742.4,187.5,737.7,193.6,737.7z M188.3,745.2h1.8
				c4,0,5.3-1.1,5.3-2.3c0-0.9-0.8-1.7-2.2-1.7C191.1,741.2,189.2,742.8,188.3,745.2z"/>
		</g>
	</g>
</g>
</svg>
